<?xml version="1.0" encoding="utf-8"?>
<!-- Generator: Adobe Illustrator 28.0.0, SVG Export Plug-In . SVG Version: 6.00 Build 0)  -->
<svg version="1.1" id="图层_1" xmlns="http://www.w3.org/2000/svg" xmlns:xlink="http://www.w3.org/1999/xlink" x="0px" y="0px"
	 viewBox="0 0 1920 960" style="enable-background:new 0 0 1920 960;" xml:space="preserve">
<style type="text/css">
	.st0{fill:#010101;}
	.st1{fill:#C0437A;}
	.st2{fill:#FDDB5E;}
	.st3{fill:#41A8D1;}
	.st4{fill:#F9F9F9;}
	.st5{fill:#F8DD73;}
	.st6{fill:#5FA7CE;}
	.st7{fill:#B34C79;}
</style>
<g>
	<path d="M603.18,364.01c-0.78,19.62-0.18,39.25,0.3,58.87c0.9,35.42,2.51,70.77,4.91,106.13c2.39,35.3,5.44,70.6,9.57,105.77
		c1.14,9.81,2.33,19.68,3.47,29.49c0.54,4.73-1.97,7.72-6.76,7.6c-16.81-0.48-12.68,3.47-21.96-12.44
		C553.71,592.49,528.7,520.69,517.93,444c-0.78-5.44-1.38-10.89-2.09-16.39c-0.12-0.84-0.42-1.68-0.66-2.57
		c-0.12,0.9-0.3,1.79-0.36,2.75c-0.78,24.59-1.32,49.18-2.27,73.77c-1.79,47.86-4.55,95.66-8.5,143.4
		c-1.62,19.2-3.23,38.41-4.79,57.61c-0.54,6.64-2.15,8.5-8.73,8.2c-4.49-0.24-7.24,0.3-6.64,5.98c0.36,3.65-2.21,5.92-6.22,5.92
		c-7.72,0-15.44,0.06-23.15,0c-3.65-0.06-9.93-5.98-10.23-9.75c-1.79-21.42-3.71-42.78-5.26-64.19
		c-4.25-59.95-7.3-119.83-8.91-179.84c-0.9-33.2-1.5-66.41-1.2-99.67c0.06-4.79-1.56-5.56-5.92-5.56
		c-138.38,0.12-276.82,0.12-415.2,0c-2.69,0-7.66,1.97-7.66-2.39c0-4.31,4.97-2.33,7.66-2.33c138.2-0.12,276.4-0.12,414.66,0
		c4.73,0,6.46-0.78,6.46-6.16c-0.3-63.54,1.56-127.01,4.73-190.43c2.51-50.79,5.98-101.47,10.65-152.08
		c0.42-4.49,6.46-10.23,10.83-10.23c7.36-0.06,14.66,0,22.02,0c4.79,0,7.24,2.39,6.82,7.06c-0.36,4.13,1.44,4.85,5.09,4.79
		c8.73-0.18,9.69,1.08,10.35,9.93c2.27,28.72,4.73,57.43,6.94,86.15c2.87,37.87,4.91,75.8,6.22,113.79
		c0.9,25.31,1.62,50.61,2.63,75.92c2.63-20.88,5.92-41.7,10.41-62.28c13.46-61.68,36.2-119.65,68.2-174.04
		c0.3-0.48,0.54-0.96,0.84-1.44c5.2-8.67,12.38-11.85,22.2-9.09c3.65,1.02,5.15,3.95,4.55,8.08c-3.65,27.1-6.34,54.26-8.79,81.48
		c-4.61,51.03-7.6,102.12-8.97,153.28c-0.54,20.4-0.78,40.74-0.84,61.08c0,1.26,0.24,2.51,0.36,3.77c1.68,1.14,3.53,0.54,5.32,0.54
		c10.95,0,21.96-0.06,32.96-0.12c1.79,1.56,1.73,3.05,0,4.61c-1.62,0-3.29-0.06-4.91-0.06
		C625.44,363.65,614.31,362.99,603.18,364.01z M517.09,355.57c0.12,37.75,2.63,69.76,7.9,101.47
		c12.03,71.85,36.55,139.22,73.29,202.15c3.47,5.92,7.3,8.08,13.88,7.54c3.59-0.3,4.25-1.38,3.83-4.61
		c-1.68-13.46-3.17-26.92-4.67-40.44c-4.97-44.87-8.32-89.86-10.65-134.91c-1.91-39.55-3.05-79.15-3.05-118.82
		c0-3.41-0.9-4.31-4.31-4.31c-13.76,0.18-27.52,0.12-41.28,0.06c-1.97,0-5.03,1.02-5.15-2.33c-0.12-3.47,2.99-2.45,4.97-2.51
		c13.76-0.06,27.52-0.12,41.28,0c3.05,0.06,4.55-0.36,4.55-4.07c0.06-52.11,1.85-104.16,5.26-156.21
		c2.15-32.61,4.79-65.09,8.44-97.58c1.5-13.64,3.17-27.34,4.67-40.98c0.18-1.56,1.2-3.59-1.91-4.13c-7.72-1.38-11.19,0-15.26,6.82
		C544.79,154.91,517.81,254.46,517.09,355.57z M510.33,355.63c-0.36-63.78-2.09-133.65-6.28-203.47
		c-2.63-43.55-5.8-87.11-9.93-130.6c-0.36-3.89-1.79-4.73-5.38-4.91c-5.38-0.3-5.2,3.41-5.86,6.7
		c-11.85,62.94-20.46,126.23-25.67,190.07c-3.83,46.84-5.68,93.75-6.22,140.71c-0.06,3.35,0.48,5.2,4.43,4.73
		c2.03-0.24,5.15-0.78,5.03,2.51c-0.12,3.17-3.23,2.45-5.2,2.27c-3.59-0.36-4.19,1.2-4.19,4.43c0.36,40.92,1.79,81.78,4.73,122.64
		c2.75,38.23,6.7,76.34,11.85,114.33c4.37,32.13,9.69,64.13,15.61,96.02c0.72,3.89,2.63,4.91,6.34,4.85
		c3.89-0.06,4.31-1.97,4.61-5.15c4.55-46.01,7.9-92.13,10.47-138.26C508.36,495.69,510.21,428.74,510.33,355.63z M435.79,487.55
		c1.73,55.76,4.79,111.4,8.79,167.04c1.26,17.95,2.87,35.84,4.37,53.72c0.54,6.58,3.29,9.03,9.87,9.09c5.32,0,10.65-0.12,15.97,0.06
		c3.05,0.12,4.19-0.84,4.19-4.01c0-6.28-0.84-12.38-2.03-18.55c-11.55-60.54-19.56-121.57-24.77-182.95
		c-4.01-47.56-6.22-95.18-5.98-142.87c0.06-5.92-2.99-5.15-6.7-5.38c-4.43-0.3-5.92,0.9-5.86,5.62
		C434.11,408.7,434.47,448.12,435.79,487.55z M435.79,235.02c-1.32,39.43-1.68,78.85-2.15,118.28c-0.06,4.73,1.44,5.98,5.86,5.62
		c3.71-0.3,6.76,0.54,6.76-5.38c-0.06-58.21,3.05-116.18,8.91-174.1c4.79-47.08,11.31-93.87,19.62-140.41
		c1.73-9.69,4.25-19.32,4.19-29.32c-0.06-3.71-1.2-4.79-4.79-4.61c-4.73,0.24-9.51,0.06-14.3,0.06c-8.08,0-10.47,2.21-11.07,10.17
		c-1.2,15.55-2.39,31.11-3.65,46.6C440.57,119.56,437.82,177.29,435.79,235.02z"/>
	<path d="M693.34,207.02c3.11-1.44,0.54-4.85,2.87-7.12c4.13-3.95,7.96-7.06,14.18-6.1c3.59,0.54,7.36-0.06,11.01,0.12
		c4.25,0.24,6.52,2.45,6.46,6.94c-0.18,12.98-0.54,10.23,10.47,10.47c5.5,0.12,11.01,0,16.51,0c5.38,0,7.66,2.15,7.66,7.42
		c0.06,9.27,0.06,9.57,9.51,9.15c8.79-0.36,11.01,1.44,11.85,11.01c3.53,38.41,5.5,76.88,5.86,115.41c0.06,3.71,1.08,4.73,4.67,4.55
		c5.86-0.3,11.73,0,17.59-0.12c7.48-0.12,6.94,1.56,6.64-7.12c-1.38-37.99-9.87-74.3-25.55-108.94c-1.5-3.29-2.21-6.46-2.09-9.99
		c0.18-4.61,0.06-9.15,0.06-13.76c0-1.08-0.36-2.39,0.06-3.23c3.83-7.78,11.01-3.59,16.63-4.19c3.53-0.36,5.56,2.57,5.62,6.58
		c0.06,7.66,0.18,7.6,7.78,7.84c4.49,0.12,6.28,2.63,6.76,6.94c2.45,22.43,4.07,44.99,5.09,67.48c0.84,17.95,1.02,35.96,1.26,53.96
		c0.06,3.59,0.96,4.61,4.61,4.61c55.46-0.12,110.86-0.12,166.32,0c3.65,0,4.61-1.02,4.67-4.61c0.42-47.62,5.68-94.77,15.2-141.43
		c0.9-4.43,3.23-7.18,8.32-6.76c3.47,0.3,7,0.12,10.47,0.06c4.73-0.06,7.06,2.51,7.36,6.94c2.03,30.03,4.25,60.07,4.91,90.16
		c0,1.08-0.06,2.15-0.12,3.23c0.54-1.08,1.32-2.15,1.5-3.29c1.68-9.93,3.05-19.92,4.85-29.85c3.71-20.76,9.33-41.04,15.85-61.08
		c1.38-4.25,3.89-6.64,8.91-6.16c4.55,0.42,9.15,0,13.76,0.12c2.99,0.12,4.67-0.36,4.49-4.13c-0.24-5.86,2.03-7.66,7.78-7.6
		c11.73,0.06,23.51,0.06,35.24,0c6.64-0.06,10.95,4.19,10.95,11.01c0,49.18,0.06,98.41-0.12,147.59c0,4.37,0.72,6.16,5.56,5.86
		c6.94-0.48,13.94-0.12,20.94-0.12c1.85,0,4.07-0.18,4.13,2.39s-2.15,2.45-4.01,2.45c-7.18,0-14.36,0.3-21.48-0.12
		c-4.19-0.24-5.15,1.08-5.15,5.15c0.18,49.36,0.12,98.77,0.12,148.13c0,7.18-4.13,11.07-11.43,11.01c-11.55-0.06-23.15-0.06-34.7,0
		c-5.92,0-7.96-1.62-7.9-7.54c0.06-3.05-0.78-4.25-3.95-4.13c-4.97,0.18-9.93-0.24-14.84,0.12c-4.55,0.36-6.88-1.97-8.08-5.68
		c-9.51-28.54-16.39-57.73-20.4-87.59c-0.3-2.33-1.02-4.61-1.5-6.88c-0.18,2.09-0.42,4.25-0.42,6.34
		c-0.72,29.02-2.81,57.91-4.79,86.87c-0.3,4.37-2.57,7-7.36,6.88c-3.65-0.06-7.36-0.18-11.01,0.06c-4.61,0.24-6.82-2.39-7.6-6.22
		c-9.45-46.31-14.78-93.09-15.26-140.35c-0.06-5.03-1.44-6.28-6.4-6.22c-54.5,0.18-109,0.18-163.57,0c-4.67,0-5.68,1.38-5.68,5.8
		c0.12,40.02-2.15,79.99-6.28,119.77c-0.6,5.62-2.69,7.66-8.44,7.24c-5.15-0.36-6.52,1.56-6.22,6.46c0.42,6.76-1.44,8.2-8.26,8.38
		c-13.76,0.36-14-0.18-14.06-13.7c-0.06-8.62,1.44-16.39,4.97-24.29c14.54-33.08,21.6-67.9,22.97-103.98
		c0.18-4.07-0.48-5.92-5.2-5.62c-6.58,0.48-13.22,0.24-19.8,0.06c-3.11-0.12-4.01,0.9-4.07,4.01c-0.24,26.62-1.02,53.19-2.99,79.75
		c-1.02,13.7-2.15,27.46-3.41,41.16c-0.36,3.59-2.39,5.98-6.46,5.98c-0.72,0-1.5,0-2.21,0c-3.83,0.06-8.56-1.2-11.25,0.6
		c-2.69,1.79-0.42,6.82-0.96,10.35c-0.54,3.65-2.63,5.8-6.58,5.74c-7.72-0.06-15.44,0.12-23.15-0.12c-3.95-0.12-5.32,1.38-5.03,5.09
		c0.12,1.85,0,3.65,0.06,5.5c0.18,4.55-2.33,6.64-6.52,6.94c-3.11,0.18-6.28-0.24-9.33,0.06c-10.35,0.96-13.82-1.02-17.77-12.62
		c-0.12-0.24-0.54-0.42-0.84-0.6c-2.69-2.45-2.27-5.8-2.33-8.97c0.3-0.48,0.72-0.9,0.84-1.38c9.51-39.67,15.26-79.81,16.75-120.55
		c1.5-41.34-0.84-82.44-7.78-123.18c-2.57-15.26-4.97-30.63-9.81-45.47C691.13,212.83,690.59,209.53,693.34,207.02z M784.64,318.24
		c-0.24,0-0.48,0-0.66,0c-0.54-10.83-0.84-21.66-1.62-32.43c-1.14-16.09-2.57-32.19-4.01-48.22c-0.12-1.44,0.48-3.29-1.73-4.19
		c-5.5-2.27-14.3,0.54-17.41,5.74c-20.1,33.62-31.35,70-33.44,109.12c-2.63,49.36,9.15,95.06,34.7,137.36
		c4.01,6.64,10.17,3.41,15.32,3.47c4.25,0.06,2.63-4.67,2.87-7.06c3.65-37.81,5.74-75.68,6.04-113.67c0.06-4.13-1.32-4.73-4.97-4.67
		c-14.3,0.18-28.6,0.18-42.9,0c-2.63-0.06-7.6,2.15-7.48-2.45c0.12-4.31,5.03-2.15,7.72-2.21c13.76-0.24,27.52-0.3,41.28,0
		c4.73,0.12,6.64-0.72,6.4-6.1C784.28,341.33,784.64,329.79,784.64,318.24z M1101.48,358.86c12.5,0,24.95-0.18,37.45,0.12
		c4.07,0.06,5.2-0.9,5.09-5.15c-1.26-48.46-13.46-93.99-36.31-136.7c-2.15-4.07-4.49-5.8-9.27-5.74
		c-14.6,0.3-14.78,0.06-19.08,13.94c-12.86,41.34-19.38,83.7-20.58,127.01c-0.18,5.86,1.68,6.88,6.94,6.7
		C1077.61,358.56,1089.51,358.86,1101.48,358.86z M1101.42,363.77c-12.09,0-24.23,0.24-36.31-0.12c-4.85-0.12-6.46,0.9-6.34,6.16
		c1.02,43.31,7.72,85.61,20.34,127.01c4.37,14.36,4.55,14.18,19.92,14.36c3.71,0.06,6.16-0.9,7.96-4.25
		c23.33-43.31,35.78-89.5,37.09-138.74c0.12-3.65-1.02-4.67-4.61-4.61C1126.78,363.89,1114.1,363.77,1101.42,363.77z M741.62,216.36
		c0,0.06,0,0.06,0,0.12c-3.83,0-7.72,0.06-11.55,0c-4.61-0.06-7.18-2.33-7.36-7c-0.06-2.21,0.12-4.43,0.06-6.58
		c0-1.26,0.18-3.17-1.32-3.23c-5.92-0.36-12.14-1.91-17.77,0.78c-4.25,2.09-7.66,12.68-6.52,17.53
		c8.08,33.38,13.28,67.19,15.55,101.41c4.19,62.4-0.9,124.14-15.55,184.98c-1.79,7.42,2.81,12.32,6.28,17.77
		c0.9,1.44,2.51,1.26,4.01,1.26c2.93,0,5.92-0.3,8.79,0.06c5.5,0.72,7.3-1.62,6.46-6.76c-0.06-0.54,0-1.08,0-1.68
		c-0.06-6.76,2.03-8.85,8.67-8.79c7.18,0.06,14.3,0.06,21.48,0c1.73,0,4.19,0.42,4.19-2.27c0-6.46,0.96-12.86-2.87-19.14
		c-19.62-32.37-30.63-67.66-33.32-105.29c-3.65-51.33,7.66-99.31,34.16-143.52c3.53-5.86,3.17-12.5,1.38-18.07
		c-1.2-3.77-7.6-0.96-11.61-1.62C743.83,216.24,742.7,216.36,741.62,216.36z M1051.82,420.12c0-17.23-0.06-34.46,0.06-51.75
		c0-3.41-0.66-4.85-4.49-4.73c-9.15,0.3-18.37,0.3-27.52,0c-4.13-0.12-5.2,0.96-5.15,5.09c0.66,44.69,5.15,88.96,13.88,132.76
		c2.33,11.61,0.12,9.27,12.08,9.69c3.77,0.12,4.97-1.02,5.26-4.85C1048.35,477.68,1049.73,448.9,1051.82,420.12z M1051.82,303.76
		c-2.03-29.14-3.47-58.27-5.8-87.35c-0.36-4.25-1.79-5.5-5.68-4.97c-1.26,0.18-2.57,0.24-3.83,0c-4.67-0.84-6.52,1.26-7.24,5.68
		c-1.85,11.79-4.25,23.45-6.1,35.18c-5.32,33.92-7.96,68.08-8.44,102.48c-0.06,3.59,1.2,4.19,4.43,4.13c9.15-0.18,18.37-0.3,27.52,0
		c4.07,0.12,5.32-0.9,5.26-5.15C1051.7,337.15,1051.82,320.45,1051.82,303.76z M1154.01,441.66c0-24.41,0-48.82-0.06-73.23
		c0-1.85,1.32-4.85-2.57-4.73c-3.53,0.12-2.09,2.93-2.15,4.55c-1.32,49.18-13.52,95.48-36.61,138.86
		c-1.97,3.77-2.57,7.48-2.63,11.55c0,3.35,1.26,4.43,4.61,4.37c10.47-0.18,20.94-0.06,31.35-0.06c6.46,0,8.02-1.56,8.02-8.14
		C1154.01,490.48,1154.01,466.07,1154.01,441.66z M1154.01,280.31c0-24.41,0-48.82,0-73.17c0-5.8-1.79-7.54-7.54-7.54
		c-9.15-0.06-18.37,0-27.52,0c-9.15,0-10.95,2.39-8.32,11.43c0.42,1.56,1.32,2.99,2.09,4.43c18.37,34.88,30.15,71.73,34.46,110.98
		c1.08,9.87,1.91,19.68,2.03,29.61c0,1.56,0,2.87,2.21,2.87c1.97,0,2.63-0.84,2.57-2.63c0-1.26,0-2.57,0-3.83
		C1154.01,328.41,1154.01,304.36,1154.01,280.31z M796.06,227.12c0,5.09,0.06,9.99,2.33,15.02c11.49,25.49,19.08,52.17,22.79,79.99
		c1.44,10.71,2.33,21.48,2.45,32.31c0,1.62-0.24,3.53,1.56,4.37c0.84,0.36,2.39,0.3,3.11-0.24c1.73-1.26,1.02-3.35,0.96-5.15
		c-0.48-39.25-2.39-78.37-6.16-117.44c-0.3-3.29-1.38-4.79-5.03-4.73c-8.56,0.12-9.57-1.14-9.69-10.23c0-2.03,0-3.95-2.75-4.55
		c-7.36-1.62-9.57,0-9.57,7.42C796.06,224.91,796.06,226.05,796.06,227.12z M829.33,391.65c0-7.9,0.06-15.73,0-23.63
		c0-1.85,0.66-4.25-2.63-4.37c-3.53-0.12-2.99,2.39-3.05,4.55c0,0.36,0,0.72,0,1.08c-0.78,36.25-8.08,71.19-22.49,104.4
		c-4.01,9.21-5.32,18.37-5.2,28.18c0.12,6.22,4.25,4.01,7.24,4.37c3.65,0.48,5.38-0.9,5.26-4.91c-0.24-8.5,1.26-10.17,9.39-9.99
		c3.83,0.06,5.03-1.32,5.38-4.97C826.04,454.88,828.25,423.3,829.33,391.65z"/>
	<path d="M1794.39,363.77c-39.31,0-78.55,0.06-117.86-0.12c-4.31,0-5.44,1.08-5.38,5.44c0.72,65.99,6.82,131.5,18.79,196.41
		c1.68,9.15-0.3,11.61-9.45,11.61c-3.29,0-6.64-0.12-9.93,0.06c-4.49,0.24-8.73,0.42-11.49-4.19c-1.08-1.85-3.23-1.38-5.03-1.38
		c-7.18,0-14.36,0.72-21.42-0.18c-9.63-1.2-19.26-0.84-28.9-1.08c-3.23-0.06-6.1-2.57-5.56-6.64c0.66-4.73-1.44-6.1-5.92-5.92
		c-7.78,0.3-15.56-0.06-23.33,0.18c-4.85,0.18-6.94-2.45-7.72-6.64c-11.13-60.54-17.05-121.63-17.47-183.25
		c0-3.95-1.62-4.37-4.85-4.31c-24.59,0.12-49.18,0.06-73.77,0.06c-1.5,0-2.93,0-4.43-0.06c-1.5-0.12-2.39-0.84-2.33-2.45
		c0.06-1.62,1.02-2.27,2.51-2.33c1.26-0.06,2.57,0,3.83,0c24.59,0,49.18-0.12,73.77,0.12c4.01,0.06,5.2-0.9,5.26-5.09
		c0.54-60.48,5.92-120.49,17.11-179.96c1.62-8.5,2.21-9.03,10.95-9.03c7.06,0,14.12-0.12,21.24,0.06c3.71,0.12,5.32-1.2,5.2-5.09
		c-0.12-5.56,2.21-7.72,7.84-7.54c6.16,0.24,12.8,1.26,18.49,0.06c10.53-2.21,20.88-0.48,31.29-1.32c1.14-0.12,2.33-0.12,2.93-1.14
		c3.11-5.26,8.14-4.55,13.1-4.37c3.29,0.12,6.58,0.06,9.93,0c7.24-0.06,9.75,2.93,8.44,10.17c-1.5,8.32-3.11,16.57-4.43,24.89
		c-9.21,57.31-14.06,115.05-14.72,173.14c-0.06,4.73,1.68,5.2,5.62,5.2c44.81-0.12,89.56-0.06,134.37-0.06c33.74,0,67.54,0,101.29,0
		c1.5,0,2.93-0.06,4.43,0.12c1.2,0.12,2.03,0.9,2.09,2.15c0.12,1.56-0.84,2.39-2.27,2.51c-1.44,0.12-2.93,0.12-4.43,0.12
		C1872.94,363.77,1833.64,363.77,1794.39,363.77z M1548.86,393.56c2.03,51.33,7.54,102.3,16.69,152.86c0.54,3.11,0.42,6.52,5.5,6.46
		c4.79-0.06,7.54-0.6,8.79-6.16c5.98-26.44,11.19-53.01,14.78-79.87c4.43-32.9,6.76-65.99,7.18-99.19c0.06-3.11-0.84-4.07-3.95-4.01
		c-15.02,0.18-30.09,0.18-45.11,0c-3.17-0.06-4.01,0.96-3.95,4.07C1548.98,376.33,1548.86,384.95,1548.86,393.56z M1548.86,328.47
		c0,8.62,0.18,17.23-0.06,25.85c-0.12,3.53,0.78,4.73,4.49,4.67c14.12-0.24,28.24-0.3,42.36,0.06c5.03,0.12,6.34-1.2,6.28-6.28
		c-0.96-59.95-8.38-119.05-22.14-177.39c-1.32-5.62-4.43-5.44-8.67-5.62c-5.09-0.24-4.97,3.29-5.5,6.4
		C1556.46,226.53,1550.96,277.26,1548.86,328.47z M1674.68,571.79c12.32-0.18,11.55,2.21,9.15-11.13
		c-8.14-46.13-13.64-92.49-16.03-139.22c-0.96-17.95-1.38-35.96-1.56-53.9c-0.06-3.95-2.09-4.37-4.79-3.59
		c-2.45,0.66-1.26,3.11-1.26,4.73c-0.78,48.4-6.34,96.14-17.35,143.34c-3.71,15.85-8.02,31.59-12.68,47.2
		c-1.97,6.7-1.73,7.06,5.32,7.06c7,0,13.94,0,20.94,0c1.62,0,3.53-0.6,4.55,1.14C1664.27,572.8,1669.53,571.96,1674.68,571.79z
		 M1645.48,156.35c-2.39,0-4.79,0-7.18,0c-10.41,0-10.41,0-7.3,10.11c13.16,43.37,22.02,87.65,26.08,132.82
		c1.68,18.61,2.75,37.27,2.93,56c0,2.27,0.18,3.77,3.17,3.71c2.69-0.06,2.99-1.44,2.87-3.47c-0.06-0.9,0-1.85,0-2.75
		c0.36-30.45,1.68-60.84,4.37-91.18c3.17-35.24,7.96-70.24,14.36-105.06c0.78-4.25,0.24-6.22-4.67-5.8c-3.83,0.36-7.72,0.18-11.55,0
		c-2.39-0.06-4.37,0.42-5.68,2.45c-1.97,2.93-4.73,3.47-8.08,3.17C1651.76,156.11,1648.59,156.35,1645.48,156.35z M1618.2,304.9
		c0,16.69,0.06,33.38-0.06,50.07c0,3.11,0.9,4.07,4.01,4.01c9.15-0.18,18.37-0.36,27.52,0.06c4.61,0.18,5.32-1.5,5.26-5.56
		c-0.3-34.7-3.59-69.16-9.33-103.38c-4.19-24.89-9.75-49.54-17.05-73.71c-0.24-0.84-0.66-1.62-1.02-2.39
		c-0.18,0.84-0.48,1.73-0.54,2.57c-1.08,11.67-2.21,23.33-3.11,35.06C1621.43,242.62,1619.7,273.73,1618.2,304.9z M1654.81,388.54
		c0-6.94-0.18-13.94,0.06-20.88c0.12-3.17-0.96-4.07-4.07-3.95c-8.08,0.18-16.15,0.06-24.17,0.06c-8.5,0-8.5,0-8.44,8.2
		c0.06,47.86,2.33,95.66,5.92,143.34c0.72,10.05,1.85,20.04,2.75,30.09c0.12,1.08,0.42,2.15,0.6,3.23c0.48-1.08,0.96-2.21,1.44-3.29
		c0.12-0.36,0.24-0.72,0.36-1.02C1643.69,493.35,1652.24,441.48,1654.81,388.54z M1592.36,169.81c-8.85-0.06-8.85-0.06-6.82,8.32
		c10.41,43.79,17.17,88.12,19.68,133.05c0.84,14.66,1.26,29.32,1.74,43.97c0.06,2.27,0.24,3.77,3.23,3.71
		c2.81-0.06,2.75-1.62,2.75-3.53c0-2.03,0.06-4.01,0.06-6.04c0.42-48.1,2.21-96.14,6.28-144.06c1.2-14.42,2.33-28.9,3.59-43.31
		c0.3-3.23-0.48-4.79-4.07-4.49c-4.01,0.3-8.08,0.12-12.08,0.06c-2.15-0.06-3.29,0.54-3.59,2.99
		C1601.93,169.93,1601.87,169.87,1592.36,169.81z M1612.88,565.08c10.71,0,10.71,0,9.63-10.71c-5.09-49.66-8.02-99.49-9.03-149.39
		c-0.24-12.68-0.36-25.31-0.6-37.99c0-1.32,0.54-3.23-1.79-3.23c-1.2,0-2.99-0.66-3.53,0.6c-0.66,1.38-0.6,3.17-0.6,4.79
		c-0.6,42.84-4.31,85.31-11.61,127.55c-2.99,17.17-6.4,34.22-10.59,51.09c-1.02,4.07-0.18,5.38,3.95,5.03
		c2.57-0.24,5.15-0.24,7.72-0.12c4.37,0.12,7.24,2.51,6.76,6.82c-0.54,5.09,1.68,6.1,5.92,5.56
		C1610.3,564.96,1611.62,565.08,1612.88,565.08z"/>
	<path class="st0" d="M1370.64,363.71c-10.95,0.18-10.89,0.18-11.19,11.13c-1.44,48.34-10.47,95.3-26.56,140.89
		c-1.44,4.13-3.77,6.64-8.85,6.34c-6.94-0.42-14-0.72-20.88,0.06c-6.7,0.72-10.11-3.17-12.32-7.84
		c-18.49-38.05-29.97-78.07-33.8-120.31c-5.92-64.67,5.32-126.17,33.32-184.68c2.57-5.38,6.16-9.51,13.4-8.79
		c6.7,0.66,13.58,0.48,20.34,0c4.79-0.3,7.24,1.97,8.62,5.86c12.68,35.9,21.24,72.69,24.77,110.62c1.14,12.08,2.27,24.11,1.97,36.25
		c-0.12,4.55,1.14,6.34,5.74,5.62c1.79-0.3,3.65,0,5.5,0C1372.43,360.54,1372.31,362.09,1370.64,363.71z M1315.18,358.86
		c11.01,0,22.02-0.3,33.02,0.12c5.09,0.18,6.52-1.26,6.34-6.34c-0.78-21.42-2.51-42.78-5.92-63.95
		c-4.31-26.8-11.25-52.95-20.04-78.55c-1.02-3.05-2.63-4.37-5.98-4.19c-5.68,0.3-11.43,0.48-17.05-0.06
		c-5.98-0.54-9.03,2.33-11.37,7.24c-20.34,42.9-31.53,88-33.44,135.45c-1.26,30.75,1.85,61.14,8.79,91.06
		c5.68,24.47,14.12,48.04,25.01,70.66c2.03,4.25,4.79,7,10.17,6.52c5.26-0.48,10.65-0.42,15.97,0c4.85,0.36,7-1.38,8.61-6.04
		c15.91-46.07,24.29-93.39,25.31-142.09c0.06-3.83-1.08-4.97-4.91-4.97c-22.02,0.18-44.03,0.12-66.05,0c-2.57,0-7.18,1.73-7.3-2.27
		c-0.12-4.31,4.49-2.45,7.06-2.51C1293.88,358.74,1304.53,358.86,1315.18,358.86z"/>
	<path class="st1" d="M1431.42,360.84c0-25.13-0.42-50.25,0.12-75.38c0.48-23.81,1.97-47.62,2.81-71.43
		c0.12-3.41,2.93-4.37,4.19-6.58c5.68-10.23,15.49-8.56,24.53-8.62c3.41,0,5.74,2.63,5.44,6.28c-0.24,3.47,1.02,4.37,4.31,4.37
		c9.15,0.06,11.25,3.41,7.66,11.97c-21.48,50.37-30.69,102.96-28.18,157.64c1.97,42.72,11.91,83.58,28.48,122.94
		c3.17,7.48,0.78,11.25-7.18,11.13c-3.53-0.06-5.2,0.48-5.15,4.73c0.06,3.83-2.57,6.22-6.88,5.86c-0.72-0.06-1.5-0.3-2.21-0.12
		c-9.27,1.91-15.91-1.91-21.66-8.97c-2.09-2.57-3.29-4.73-3.47-8.08c-2.33-46.55-3.77-93.09-3.41-139.64c0-2.03-0.24-4.01-0.42-6.04
		C1430.76,360.84,1431.12,360.84,1431.42,360.84z M1456.97,203.91c-9.81,0-17.41,6.76-17.77,15.2c-1.44,34.22-3.05,68.5-3.29,102.78
		c-0.24,32.25-0.3,64.55,0.36,96.8c0.6,28.78,1.91,57.49,3.17,86.27c0.3,6.94,5.74,10.23,10.29,13.22
		c2.81,1.85,7.84,0.54,11.85,0.36c1.56-0.06,1.79-1.62,1.73-2.99c-0.24-5.62,2.45-7.9,8.02-7.66c5.92,0.24,6.16-0.24,3.89-5.8
		c-12.86-31.11-21.84-63.24-25.79-96.8c-3.77-32.25-3.47-64.37,1.08-96.44c4.31-30.45,12.86-59.71,24.65-88.12
		c2.39-5.74,2.15-6.22-4.19-5.92c-3.89,0.18-7.48-1.14-7.42-4.73C1463.79,203.61,1460.62,203.13,1456.97,203.91z"/>
	<path class="st1" d="M1370.64,363.71c1.68-1.62,1.79-3.17,0-4.79c0.78-27.88,1.62-55.7,2.39-83.58c0.6-21.06,1.14-42.18,1.73-63.24
		c0.18-6.1,1.85-7.72,7.9-7.54c11.37,0.24,13.28,2.69,14.36,14.3c1.91,19.5,4.49,38.95,6.76,58.39c2.51,21.12,3.83,42.36,4.55,63.6
		c1.08,33.44-0.48,66.71-3.89,99.91c-1.97,19.14-4.61,38.17-7.06,57.25c-0.78,5.86,0.3,12.14-3.83,17.41
		c-1.56,1.97-2.93,2.99-5.44,2.63c-1.97-0.24-4.01-0.12-6.04-0.06c-5.32,0.06-7.24-1.73-7.36-7.06c-0.78-29.32-1.56-58.63-2.33-88
		C1371.89,403.25,1371.24,383.45,1370.64,363.71z M1376.02,355.51c0.12,29.91,1.02,53.9,1.85,77.89
		c0.84,24.53,1.08,49.12,1.68,73.65c0.12,5.86,1.79,7.18,7.42,6.04c3.59-0.72,4.25-3.59,4.55-6.64c0.84-8.02,1.32-16.09,2.45-24.05
		c4.91-33.2,8.44-66.53,9.33-100.03c0.9-32.67-0.12-65.21-3.89-97.7c-2.39-20.34-4.67-40.74-7.18-61.08
		c-0.42-3.59-0.24-7.24-1.56-10.83c-1.56-4.07-4.73-3.35-7.78-3.29c-3.53,0.06-3.35,2.75-3.41,5.15
		C1378.3,263.56,1377.1,312.5,1376.02,355.51z"/>
	<path class="st1" d="M693.34,207.02c-2.75,2.51-2.21,5.8-2.33,8.97c-34.28,41.52-49.06,89.74-49.54,142.99
		c-10.95,0.06-21.96,0.18-32.9,0.12c-1.79,0-3.65,0.6-5.32-0.54c4.13-0.84,9.63,1.68,12.08-1.2c2.81-3.23,0.84-8.79,0.9-13.34
		c0.78-50.97,3.65-101.77,14.24-151.78c1.44-6.82,3.11-13.58,4.85-20.28c1.5-5.86,5.74-9.03,11.79-9.03c7.36,0,14.66-0.06,22.02,0
		c5.32,0.06,7.48,2.27,7.48,7.66c0,7.18,0.18,14.3-0.06,21.48c-0.12,3.77,1.02,5.56,4.97,5.03c0.54-0.06,1.08,0,1.68,0
		C692.38,197.15,693.16,197.87,693.34,207.02z M621.55,333.38c0,5.15,0,10.29,0,15.38c0,9.87,0,9.69,10.05,9.69
		c3.71,0,4.49-1.26,4.61-4.73c0.3-10.05,1.02-20.1,2.57-30.09c6.28-40.8,20.82-78.01,47.44-110.02c2.57-3.11,2.45-6.76,1.38-9.87
		c-1.14-3.29-4.79-1.73-7.36-1.62c-6.28,0.36-9.03-2.21-8.97-8.67c0.06-6.94-0.12-13.94,0.12-20.88c0.12-3.35-1.08-4.55-4.43-4.43
		c-6.22,0.18-12.44,0.24-18.73,0c-4.67-0.18-7.18,1.91-8.2,6.28c-1.68,7.12-3.71,14.18-5.15,21.36
		C625.68,241.24,622.51,287.19,621.55,333.38z"/>
	<path class="st1" d="M691.01,506.57c0.06,3.17-0.36,6.46,2.33,8.97c-0.18,9.15-0.96,10.23-10.17,9.81c-5.32-0.24-7.06,1.38-6.7,6.7
		c0.48,6.76,0.06,13.58,0.18,20.34c0.06,4.79-2.27,7.12-6.94,7.18c-8.26,0.06-16.51,0.12-24.77,0c-5.38-0.12-8.14-4.01-9.33-8.44
		c-6.1-21.9-9.99-44.27-12.8-66.83c-4.73-38.23-6.46-76.64-6.46-115.17c0-3.71-0.96-5.38-4.91-4.97c-2.69,0.24-5.5-0.06-8.2-0.18
		c11.13-0.96,22.2-0.3,33.32-0.42c1.62,0,3.29,0.06,4.91,0.06C641.89,416.83,656.79,465.05,691.01,506.57z M621.55,388
		c0.66,37.39,2.93,73.23,8.08,108.88c2.39,16.87,5.8,33.56,10.05,50.07c1.32,5.09,3.83,7.96,9.57,7.54c5.5-0.42,11.01-0.3,16.51,0
		c4.13,0.24,5.98-0.84,5.68-5.38c-0.42-6.4-0.06-12.86-0.12-19.26c-0.06-7.54,2.21-9.69,9.99-9.09c6.22,0.42,7-0.42,6.76-6.58
		c-0.06-2.15-0.84-3.83-2.15-5.44c-3.11-3.83-6.22-7.72-9.03-11.79c-25.96-37.15-38.17-78.79-40.56-123.66
		c-0.48-9.27-0.48-9.09-10.35-9.03c-3.29,0.06-4.55,0.9-4.43,4.37C621.73,375.43,621.55,382.43,621.55,388z"/>
	<path d="M994.87,200.5c0-9.51-0.06-19.08,0-28.6c0-2.03-0.78-5.03,2.51-5.03c2.81,0,2.39,2.69,2.39,4.67c0,19.08,0,38.17,0,57.25
		c0,1.85,0.72,4.61-2.27,4.73c-3.53,0.12-2.57-2.93-2.57-4.91C994.87,219.23,994.87,209.83,994.87,200.5z"/>
	<path d="M999.83,522.55c0,9.51,0,19.08,0,28.6c0,1.91,0.48,4.55-2.45,4.61c-2.93,0-2.45-2.57-2.45-4.55c0-19.26,0-38.53,0-57.79
		c0-1.97-0.36-4.49,2.69-4.31c2.63,0.18,2.21,2.51,2.21,4.25C999.83,503.1,999.83,512.8,999.83,522.55z"/>
	<path class="st2" d="M1101.48,358.86c-11.91,0-23.87-0.3-35.78,0.12c-5.26,0.18-7.12-0.84-6.94-6.7
		c1.26-43.25,7.72-85.61,20.58-127.01c4.31-13.88,4.49-13.58,19.08-13.94c4.79-0.12,7.12,1.68,9.27,5.74
		c22.85,42.72,35.06,88.24,36.31,136.7c0.12,4.31-1.02,5.26-5.09,5.15C1126.43,358.68,1113.92,358.86,1101.48,358.86z"/>
	<path class="st2" d="M1101.42,363.77c12.68,0,25.31,0.12,37.99-0.06c3.59-0.06,4.73,0.96,4.61,4.61
		c-1.32,49.24-13.76,95.42-37.09,138.74c-1.79,3.35-4.25,4.31-7.96,4.25c-15.38-0.18-15.49,0-19.92-14.36
		c-12.62-41.4-19.32-83.76-20.34-127.01c-0.12-5.26,1.5-6.28,6.34-6.16C1077.19,364.01,1089.33,363.77,1101.42,363.77z"/>
	<path class="st3" d="M741.62,216.36c1.08,0,2.21-0.12,3.29,0c4.01,0.6,10.41-2.15,11.61,1.62c1.73,5.5,2.15,12.14-1.38,18.07
		c-26.56,44.21-37.87,92.19-34.16,143.52c2.69,37.63,13.64,72.93,33.32,105.29c3.83,6.28,2.87,12.62,2.87,19.14
		c0,2.69-2.45,2.27-4.19,2.27c-7.18,0.06-14.3,0.06-21.48,0c-6.64-0.06-8.73,2.03-8.67,8.79c0,0.54-0.06,1.14,0,1.68
		c0.84,5.15-1.02,7.48-6.46,6.76c-2.87-0.36-5.86-0.06-8.79-0.06c-1.5,0-3.11,0.12-4.01-1.26c-3.47-5.44-8.08-10.29-6.28-17.77
		c14.6-60.84,19.74-122.58,15.55-184.98c-2.27-34.22-7.48-68.02-15.55-101.41c-1.2-4.85,2.27-15.44,6.52-17.53
		c5.56-2.75,11.79-1.14,17.77-0.78c1.5,0.06,1.32,1.97,1.32,3.23c0,2.21-0.18,4.43-0.06,6.58c0.18,4.67,2.75,6.94,7.36,7
		c3.83,0.06,7.72,0,11.55,0C741.62,216.41,741.62,216.41,741.62,216.36z"/>
	<path class="st3" d="M796.06,227.12c0-1.08,0-2.21,0-3.29c0-7.48,2.21-9.09,9.57-7.42c2.75,0.6,2.75,2.51,2.75,4.55
		c0.12,9.09,1.14,10.35,9.69,10.23c3.65-0.06,4.73,1.38,5.03,4.73c3.77,39.07,5.68,78.19,6.16,117.44c0,1.73,0.78,3.83-0.96,5.15
		c-0.72,0.54-2.27,0.66-3.11,0.24c-1.79-0.78-1.56-2.75-1.56-4.37c-0.12-10.83-1.02-21.6-2.45-32.31
		c-3.71-27.76-11.31-54.44-22.79-79.99C796.18,237.12,796.06,232.21,796.06,227.12z"/>
	<path class="st3" d="M829.33,391.65c-1.14,31.65-3.35,63.24-6.16,94.83c-0.3,3.65-1.56,5.03-5.38,4.97
		c-8.14-0.18-9.63,1.5-9.39,9.99c0.12,4.01-1.68,5.32-5.26,4.91c-2.99-0.36-7.12,1.85-7.24-4.37c-0.18-9.81,1.2-18.91,5.2-28.18
		c14.42-33.26,21.72-68.14,22.49-104.4c0-0.36,0-0.72,0-1.08c0.06-2.15-0.48-4.67,3.05-4.55c3.23,0.12,2.57,2.51,2.63,4.37
		C829.39,375.91,829.33,383.75,829.33,391.65z"/>
	<path class="st4" d="M1674.68,571.79c-5.09,0.18-10.35,1.02-13.7-4.43c-1.02-1.68-2.93-1.14-4.55-1.14c-7,0-13.94,0-20.94,0
		c-7.06,0-7.36-0.3-5.32-7.06c4.67-15.61,8.97-31.29,12.68-47.2c11.01-47.14,16.51-94.94,17.35-143.34c0-1.62-1.14-4.07,1.26-4.73
		c2.69-0.78,4.73-0.36,4.79,3.59c0.18,18.01,0.66,35.96,1.56,53.9c2.45,46.78,7.96,93.15,16.03,139.22
		C1686.16,574,1686.94,571.61,1674.68,571.79z"/>
	<path class="st4" d="M1645.48,156.35c3.11,0,6.28-0.24,9.33,0.06c3.35,0.3,6.1-0.24,8.08-3.17c1.38-2.03,3.35-2.57,5.68-2.45
		c3.83,0.12,7.72,0.36,11.55,0c4.85-0.48,5.44,1.56,4.67,5.8c-6.4,34.76-11.19,69.82-14.36,105.06
		c-2.69,30.33-4.01,60.72-4.37,91.18c0,0.9-0.06,1.85,0,2.75c0.12,2.03-0.18,3.41-2.87,3.47c-2.99,0.12-3.17-1.38-3.17-3.71
		c-0.18-18.73-1.26-37.33-2.93-56c-4.13-45.17-12.92-89.44-26.08-132.82c-3.05-10.11-3.11-10.11,7.3-10.11
		C1640.76,156.35,1643.09,156.35,1645.48,156.35z"/>
	<path class="st4" d="M1592.36,169.81c9.57,0.06,9.63,0.06,10.71-9.33c0.3-2.45,1.38-3.05,3.59-2.99c4.01,0.12,8.08,0.24,12.08-0.06
		c3.59-0.24,4.37,1.32,4.07,4.49c-1.26,14.42-2.39,28.9-3.59,43.31c-4.07,47.92-5.86,95.96-6.28,144.06c0,2.03-0.06,4.01-0.06,6.04
		c0,1.91,0.12,3.47-2.75,3.53c-2.99,0.06-3.17-1.38-3.23-3.71c-0.54-14.66-0.9-29.37-1.73-43.97
		c-2.57-44.93-9.27-89.26-19.68-133.05C1583.5,169.75,1583.44,169.75,1592.36,169.81z"/>
	<path class="st4" d="M1612.88,565.08c-1.26,0-2.57-0.12-3.83,0c-4.25,0.48-6.46-0.48-5.92-5.56c0.48-4.37-2.39-6.7-6.76-6.82
		c-2.57-0.06-5.15-0.12-7.72,0.12c-4.13,0.36-4.97-0.96-3.95-5.03c4.19-16.87,7.6-33.92,10.59-51.09
		c7.36-42.18,11.01-84.71,11.61-127.55c0-1.62,0-3.41,0.6-4.79c0.6-1.26,2.33-0.6,3.53-0.6c2.33,0.06,1.73,1.91,1.79,3.23
		c0.24,12.68,0.36,25.31,0.6,37.99c1.02,49.9,3.95,99.73,9.03,149.39C1623.64,565.08,1623.58,565.08,1612.88,565.08z"/>
	<path class="st2" d="M1315.18,358.86c-10.65,0-21.3-0.12-31.95,0.12c-2.51,0.06-7.18-1.79-7.06,2.51c0.12,4.01,4.73,2.27,7.3,2.27
		c22.02,0.12,44.03,0.18,66.05,0c3.83-0.06,4.97,1.08,4.91,4.97c-1.02,48.7-9.39,96.02-25.31,142.09c-1.62,4.67-3.71,6.4-8.62,6.04
		c-5.26-0.42-10.65-0.42-15.97,0c-5.32,0.48-8.08-2.21-10.17-6.52c-10.89-22.61-19.32-46.19-25.01-70.66
		c-6.94-29.91-10.05-60.31-8.79-91.06c1.91-47.38,13.04-92.55,33.44-135.45c2.33-4.91,5.38-7.84,11.37-7.24
		c5.62,0.54,11.37,0.3,17.05,0.06c3.35-0.18,4.97,1.2,5.98,4.19c8.85,25.67,15.73,51.75,20.04,78.55
		c3.41,21.18,5.2,42.54,5.92,63.95c0.18,5.09-1.26,6.52-6.34,6.34C1337.19,358.56,1326.19,358.86,1315.18,358.86z"/>
</g>
<g>
	<g>
		<rect x="151.85" y="900.17" class="st5" width="59.83" height="59.83"/>
		<g>
			<path d="M304.41,906.16v4.25h-23.69v14.36h22.43v4.25h-22.43v19.86h-4.91v-42.66h28.6V906.16z"/>
			<path d="M315.18,906.16v38.47h24.71v4.25h-29.55v-42.66h4.85V906.16z"/>
			<path d="M360.82,906.16c6.76,0,11.85,1.91,15.32,5.86c3.17,3.59,4.79,8.79,4.79,15.5c0,6.58-1.73,11.79-5.15,15.5
				c-3.59,3.89-8.73,5.86-15.44,5.86h-14.84v-42.66h15.32V906.16z M350.41,944.62h9.09c5.56,0,9.75-1.5,12.56-4.43
				c2.63-2.87,4.01-7.12,4.01-12.68c0-5.74-1.26-9.99-3.71-12.74c-2.63-2.93-6.7-4.37-12.32-4.37h-9.63
				C350.41,910.4,350.41,944.62,350.41,944.62z"/>
			<path d="M417.24,900.59c-0.54,2.21-1.08,4.31-1.68,6.22h10.35v4.13h-11.73c-1.56,4.13-3.29,7.9-5.26,11.25l-3.53-2.21
				c3.53-6.1,6.1-12.86,7.72-20.28L417.24,900.59z M425.2,918.84v3.89h-6.28v7.36h7.66v3.95h-7.66v13.88
				c2.03-0.96,4.13-2.21,6.22-3.71l0.78,3.71c-3.23,2.15-6.88,3.89-11.07,5.2l-1.68-3.59c1.02-0.36,1.56-1.02,1.56-1.91v-13.58
				h-7.48v-3.95h7.48v-7.36h-3.11v-3.89L425.2,918.84L425.2,918.84z M455.41,921.83v18.79h-6.1v7.78c0,1.5,0.72,2.27,2.21,2.27h2.57
				c0.96,0,1.68-0.3,2.09-0.84c0.54-0.72,0.9-2.81,1.08-6.22l3.53,1.08c-0.36,4.55-1.02,7.3-1.97,8.32c-0.84,0.78-2.21,1.2-4.07,1.2
				h-4.31c-3.41,0-5.09-1.68-5.09-4.97v-8.62h-5.26c-0.66,3.59-1.91,6.52-3.77,8.73c-2.15,2.51-5.68,4.43-10.65,5.8l-1.5-3.59
				c4.07-1.08,7.06-2.63,8.91-4.55c1.44-1.68,2.45-3.77,2.99-6.4h-5.38v-18.79H455.41z M440.75,904.54
				c-0.6-1.56-1.32-3.05-2.03-4.43l4.31-0.72c0.6,1.5,1.26,3.23,1.85,5.15h12.68v3.59h-4.91c-0.54,2.27-1.26,4.43-2.21,6.46h9.09
				v3.65h-32.49v-3.65h8.91c-0.72-2.39-1.5-4.55-2.33-6.46h-4.79v-3.59H440.75z M451.52,929.61v-4.37h-16.99v4.37H451.52z
				 M451.52,932.78h-16.99v4.37h16.99V932.78z M448.65,908.13h-10.83c0.72,1.97,1.38,4.13,2.03,6.46h6.46
				C447.39,912.5,448.17,910.34,448.65,908.13z"/>
			<path d="M481.73,923.63c-0.06,2.21-0.18,4.31-0.3,6.28h27.82v25.07h-4.31V934.1H480.9c-1.44,8.97-4.73,15.91-9.81,20.7
				l-3.29-2.87c6.28-5.92,9.45-15.38,9.57-28.3v-21.96h4.37v14.24h17.53v-15.91h4.25v15.91h13.46v4.13h-35.24V923.63z"/>
		</g>
	</g>
	<g>
		<rect x="750.12" y="900.17" class="st6" width="59.83" height="59.83"/>
		<g>
			<path d="M899.8,908.61c2.87,2.27,4.49,5.68,4.91,10.17h-4.85c-0.54-3.11-1.73-5.38-3.59-6.88c-1.91-1.56-4.61-2.27-8.08-2.27
				c-3.17,0-5.62,0.48-7.42,1.56c-2.03,1.2-3.05,2.99-3.05,5.44c0,2.15,1.2,3.89,3.65,5.2c1.08,0.6,3.71,1.5,7.84,2.69
				c5.62,1.68,9.33,3.05,11.13,4.13c3.53,2.15,5.32,5.15,5.32,9.03c0,3.71-1.5,6.7-4.49,8.85c-2.99,2.09-7,3.17-12.08,3.17
				c-5.03,0-8.97-1.08-11.85-3.23c-3.35-2.57-5.2-6.46-5.56-11.73h4.85c0.42,3.71,1.73,6.46,3.89,8.2c1.97,1.56,4.85,2.39,8.67,2.39
				c3.47,0,6.34-0.66,8.5-1.97c2.15-1.32,3.23-3.11,3.23-5.38c0-2.69-1.44-4.79-4.25-6.28c-1.2-0.72-4.25-1.73-9.03-3.11
				c-5.15-1.56-8.44-2.75-9.81-3.47c-3.29-1.91-4.91-4.67-4.91-8.26c0-3.71,1.56-6.64,4.73-8.67c2.81-1.91,6.46-2.87,10.89-2.87
				C893.22,905.32,897.05,906.4,899.8,908.61z"/>
			<path d="M916.73,906.16v38.47h24.71v4.25h-29.55v-42.66h4.85V906.16z"/>
			<path d="M962.38,906.16c6.76,0,11.85,1.91,15.32,5.86c3.17,3.59,4.79,8.79,4.79,15.5c0,6.58-1.73,11.79-5.15,15.5
				c-3.59,3.89-8.73,5.86-15.44,5.86h-14.84v-42.66h15.32V906.16z M951.97,944.62h9.09c5.56,0,9.75-1.5,12.56-4.43
				c2.63-2.87,4.01-7.12,4.01-12.68c0-5.74-1.26-9.99-3.71-12.74c-2.63-2.93-6.7-4.37-12.32-4.37h-9.63L951.97,944.62L951.97,944.62
				z"/>
			<path d="M1018.8,900.59c-0.54,2.21-1.08,4.31-1.68,6.22h10.35v4.13h-11.73c-1.56,4.13-3.29,7.9-5.26,11.25l-3.53-2.21
				c3.53-6.1,6.1-12.86,7.72-20.28L1018.8,900.59z M1026.75,918.84v3.89h-6.28v7.36h7.66v3.95h-7.66v13.88
				c2.03-0.96,4.13-2.21,6.22-3.71l0.78,3.71c-3.23,2.15-6.88,3.89-11.07,5.2l-1.68-3.59c1.02-0.36,1.56-1.02,1.56-1.91v-13.58
				h-7.48v-3.95h7.48v-7.36h-3.11v-3.89L1026.75,918.84L1026.75,918.84z M1057.03,921.83v18.79h-6.1v7.78c0,1.5,0.72,2.27,2.21,2.27
				h2.57c0.96,0,1.68-0.3,2.09-0.84c0.54-0.72,0.9-2.81,1.08-6.22l3.53,1.08c-0.36,4.55-1.02,7.3-1.97,8.32
				c-0.84,0.78-2.21,1.2-4.07,1.2H1052c-3.41,0-5.09-1.68-5.09-4.97v-8.62h-5.26c-0.66,3.59-1.91,6.52-3.77,8.73
				c-2.15,2.51-5.68,4.43-10.65,5.8l-1.5-3.59c4.07-1.08,7.06-2.63,8.91-4.55c1.44-1.68,2.45-3.77,2.99-6.4h-5.38v-18.79H1057.03z
				 M1042.31,904.54c-0.6-1.56-1.32-3.05-2.03-4.43l4.31-0.72c0.6,1.5,1.26,3.23,1.85,5.15h12.68v3.59h-4.91
				c-0.54,2.27-1.26,4.43-2.21,6.46h9.09v3.65h-32.49v-3.65h8.91c-0.72-2.39-1.5-4.55-2.33-6.46h-4.79v-3.59H1042.31z
				 M1053.14,929.61v-4.37h-16.99v4.37H1053.14z M1053.14,932.78h-16.99v4.37h16.99V932.78z M1050.21,908.13h-10.83
				c0.72,1.97,1.38,4.13,2.03,6.46h6.46C1048.95,912.5,1049.73,910.34,1050.21,908.13z"/>
			<path d="M1083.29,923.63c-0.06,2.21-0.18,4.31-0.3,6.28h27.82v25.07h-4.31V934.1h-24.05c-1.44,8.97-4.73,15.91-9.81,20.7
				l-3.29-2.87c6.28-5.92,9.45-15.38,9.57-28.3v-21.96h4.37v14.24h17.53v-15.91h4.25v15.91h13.46v4.13h-35.24L1083.29,923.63
				L1083.29,923.63z"/>
		</g>
	</g>
	<g>
		<g>
			<path class="st7" d="M1402.23,906.16v47.86h-47.86v-47.86H1402.23 M1408.21,900.17h-59.83V960h59.83V900.17L1408.21,900.17z"/>
		</g>
		<g>
			<path d="M1493.16,900.11v54.74h-4.43v-14.12h-18.25v-4.13h18.25v-9.51h-15.49v-4.19h15.49v-9.27h-16.87v-4.13h16.87v-9.45h4.43
				V900.11z M1507.16,900.11v9.45h16.81v4.13h-16.81v9.27h15.5v4.19h-15.5v9.51h17.77v4.13h-17.77v14.12h-4.43v-54.74h4.43V900.11z"
				/>
			<path d="M1538.39,922.07v-14h-7.48v-4.01h18.97v4.01h-7.06v14h5.86v4.07h-5.86v12.2c2.45-1.02,4.85-2.09,7.12-3.29v4.19
				c-5.8,2.99-12.08,5.44-18.79,7.48l-1.14-4.31c2.87-0.66,5.62-1.44,8.38-2.39v-13.88h-6.76v-4.07L1538.39,922.07L1538.39,922.07z
				 M1564.36,910.34v-10.23h4.19v10.23h10.17c-1.91-2.27-4.31-4.61-7.3-7.06l2.51-2.39c2.99,2.33,5.56,4.67,7.6,7l-2.39,2.45h3.59
				v4.19h-14.18v5.74c0.9,2.87,1.97,5.62,3.17,8.26c2.75-2.93,5.2-6.22,7.42-9.87l3.23,2.39c-2.87,4.43-5.8,8.14-8.73,11.13
				c2.99,5.5,6.82,10.35,11.49,14.48l-2.81,3.35c-5.86-5.62-10.47-12.44-13.76-20.4v19.74c0,3.29-1.74,4.97-5.09,4.97h-6.58
				l-0.84-4.07c2.03,0.18,4.07,0.3,5.98,0.3c1.56,0,2.33-0.78,2.33-2.21v-14.96c-3.95,5.8-8.56,10.65-13.76,14.6l-2.21-3.71
				c6.04-4.07,11.37-9.69,15.97-16.75v-12.98h-13.58v-4.19L1564.36,910.34L1564.36,910.34z M1560.59,929.43l-2.99,2.09
				c-1.68-3.05-3.89-6.46-6.7-10.17l3.35-2.09C1557,923.15,1559.09,926.56,1560.59,929.43z"/>
			<path d="M1644.17,902.39v4.19h-23.99c-0.48,2.63-1.26,5.2-2.21,7.66h22.97v40.8h-4.13v-2.99h-38.35v2.99h-4.13v-40.8h19.26
				c0.96-2.51,1.73-5.03,2.21-7.66h-24.89v-4.19H1644.17z M1606.77,948.09v-29.97h-8.26v29.97H1606.77z M1624.42,925.54v-7.42
				h-13.64v7.42H1624.42z M1624.42,936.67v-7.3h-13.64v7.3H1624.42z M1624.42,948.09v-7.66h-13.64v7.66H1624.42z M1636.87,948.09
				v-29.97h-8.44v29.97H1636.87z"/>
			<path d="M1661.4,900.59c-0.54,2.21-1.08,4.31-1.68,6.22h10.35v4.13h-11.73c-1.56,4.13-3.29,7.9-5.26,11.25l-3.53-2.21
				c3.53-6.1,6.1-12.86,7.72-20.28L1661.4,900.59z M1669.35,918.84v3.89h-6.28v7.36h7.66v3.95h-7.66v13.88
				c2.03-0.96,4.13-2.21,6.22-3.71l0.78,3.71c-3.23,2.15-6.88,3.89-11.07,5.2l-1.68-3.59c1.02-0.36,1.56-1.02,1.56-1.91v-13.58
				h-7.48v-3.95h7.48v-7.36h-3.11v-3.89L1669.35,918.84L1669.35,918.84z M1699.62,921.83v18.79h-6.1v7.78c0,1.5,0.72,2.27,2.21,2.27
				h2.57c0.96,0,1.68-0.3,2.09-0.84c0.54-0.72,0.9-2.81,1.08-6.22l3.53,1.08c-0.36,4.55-1.02,7.3-1.97,8.32
				c-0.84,0.78-2.21,1.2-4.07,1.2h-4.37c-3.41,0-5.09-1.68-5.09-4.97v-8.62h-5.26c-0.66,3.59-1.91,6.52-3.77,8.73
				c-2.15,2.51-5.68,4.43-10.65,5.8l-1.5-3.59c4.07-1.08,7.06-2.63,8.91-4.55c1.44-1.68,2.45-3.77,2.99-6.4h-5.38v-18.79H1699.62z
				 M1684.91,904.54c-0.6-1.56-1.32-3.05-2.03-4.43l4.31-0.72c0.6,1.5,1.26,3.23,1.85,5.15h12.68v3.59h-4.91
				c-0.54,2.27-1.26,4.43-2.21,6.46h9.09v3.65h-32.49v-3.65h8.91c-0.72-2.39-1.5-4.55-2.33-6.46H1673v-3.59H1684.91z
				 M1695.74,929.61v-4.37h-16.99v4.37H1695.74z M1695.74,932.78h-16.99v4.37h16.99V932.78z M1692.8,908.13h-10.83
				c0.72,1.97,1.38,4.13,2.03,6.46h6.46C1691.55,912.5,1692.33,910.34,1692.8,908.13z"/>
			<path d="M1725.89,923.63c-0.06,2.21-0.18,4.31-0.3,6.28h27.82v25.07h-4.31V934.1h-24.05c-1.44,8.97-4.73,15.91-9.81,20.7
				l-3.29-2.87c6.28-5.92,9.45-15.38,9.57-28.3v-21.96h4.37v14.24h17.53v-15.91h4.25v15.91h13.46v4.13h-35.24V923.63z"/>
		</g>
	</g>
</g>
</svg>
