<?xml version="1.0" encoding="UTF-8"?>
<svg xmlns="http://www.w3.org/2000/svg" version="1.1" xmlns:xlink="http://www.w3.org/1999/xlink" viewBox="0 0 400 207.23">
  <!-- Generator: Adobe Illustrator 29.5.1, SVG Export Plug-In . SVG Version: 2.1.0 Build 141)  -->
  <defs>
    <style>
      .st0, .st1 {
        fill: none;
      }

      .st2 {
        fill: #e60012;
      }

      .st3 {
        clip-path: url(#clippath-1);
      }

      .st4 {
        fill: #231815;
      }

      .st1 {
        stroke: #231815;
        stroke-miterlimit: 10;
      }

      .st5 {
        clip-path: url(#clippath-2);
      }

      .st6 {
        clip-path: url(#clippath);
      }
    </style>
    <clipPath id="clippath">
      <rect class="st0" x="23.87" y="8.5" width="340.53" height="32.74"/>
    </clipPath>
    <clipPath id="clippath-1">
      <rect class="st0" x="23.87" y="78.56" width="340.53" height="32.74"/>
    </clipPath>
    <clipPath id="clippath-2">
      <rect class="st0" x="25.15" y="151.7" width="340.53" height="32.74"/>
    </clipPath>
  </defs>
  <g id="_图层_1" data-name="图层_1">
    <g class="st6">
      <path class="st1" d="M31.4,15.24c15.42,0,15.42,52,30.83,52s15.41-52,30.82-52,15.41,52,30.83,52,15.41-52,30.83-52,15.42,52,30.83,52,15.42-52,30.83-52,15.42,52,30.83,52,15.42-52,30.83-52,15.42,52,30.84,52,15.42-52,30.84-52"/>
      <path class="st1" d="M31.4,67.24c15.42,0,15.42-52,30.83-52s15.41,52,30.82,52,15.41-52,30.83-52,15.41,52,30.83,52,15.42-52,30.83-52,15.42,52,30.83,52,15.42-52,30.83-52,15.42,52,30.83,52,15.42-52,30.84-52,15.42,52,30.84,52"/>
    </g>
    <g>
      <line class="st1" x1="23.87" y1="41.24" x2="358.36" y2="41.24"/>
      <path class="st4" d="M364.4,41.24c-2.84,1.05-6.36,2.85-8.55,4.76l1.72-4.76-1.72-4.75c2.18,1.9,5.71,3.7,8.55,4.75Z"/>
    </g>
    <g>
      <path class="st4" d="M362.77,47.97l-.46,1.59h.92l-.1.37h-.91l-1.01,3.46c-.11.37-.16.61-.16.72,0,.07.02.12.05.15s.07.05.11.05c.1,0,.23-.07.39-.21.09-.08.3-.32.63-.72l.19.15c-.36.52-.7.89-1.02,1.11-.22.15-.44.22-.66.22-.17,0-.31-.05-.42-.16s-.16-.25-.16-.41c0-.21.06-.53.19-.97l.98-3.39h-.88l.06-.23c.43-.12.79-.29,1.07-.52s.6-.64.96-1.21h.26Z"/>
      <path class="st4" d="M366.35,46.4l-2.88,8.5h-.47l2.88-8.5h.47Z"/>
      <path class="st4" d="M370.16,49.2v1.83h-.19c-.15-.57-.34-.96-.57-1.17s-.53-.31-.89-.31c-.27,0-.49.07-.66.22s-.25.3-.25.48c0,.22.06.41.19.56.12.16.37.33.74.51l.86.42c.79.39,1.19.9,1.19,1.53,0,.49-.18.88-.55,1.18s-.78.45-1.24.45c-.33,0-.7-.06-1.12-.18-.13-.04-.23-.06-.32-.06-.09,0-.16.05-.21.15h-.19v-1.92h.19c.11.55.32.96.63,1.24s.65.42,1.04.42c.27,0,.49-.08.66-.24s.25-.35.25-.57c0-.27-.09-.5-.28-.68s-.57-.42-1.13-.7-.94-.54-1.11-.76c-.18-.22-.26-.5-.26-.84,0-.44.15-.81.45-1.11s.69-.45,1.17-.45c.21,0,.47.04.77.13.2.06.33.09.4.09.06,0,.11-.01.15-.04s.08-.09.12-.18h.19Z"/>
    </g>
    <g>
      <path class="st4" d="M51.73,53.31c0-.91.14-1.69.41-2.34s.64-1.14,1.09-1.46c.35-.25.71-.38,1.09-.38.61,0,1.16.31,1.64.93.61.77.91,1.81.91,3.13,0,.92-.13,1.71-.4,2.35s-.6,1.11-1.02,1.4-.81.44-1.19.44c-.76,0-1.39-.45-1.89-1.34-.43-.75-.64-1.66-.64-2.72ZM52.88,53.45c0,1.09.13,1.99.4,2.68.22.58.55.87,1,.87.21,0,.43-.09.66-.28s.4-.51.52-.95c.18-.67.27-1.62.27-2.84,0-.91-.09-1.66-.28-2.27-.14-.45-.32-.77-.54-.96-.16-.13-.35-.19-.58-.19-.27,0-.5.12-.71.36-.28.32-.47.83-.57,1.53s-.15,1.38-.15,2.06Z"/>
      <path class="st4" d="M58.79,56.1c.18,0,.34.06.46.19s.19.28.19.46-.06.33-.19.46-.28.19-.46.19-.33-.06-.46-.19-.19-.28-.19-.46.06-.34.19-.46.28-.19.46-.19Z"/>
      <path class="st4" d="M65.5,49.29l-.46,1h-2.39l-.52,1.07c1.04.15,1.86.54,2.46,1.15.52.53.78,1.16.78,1.88,0,.42-.08.8-.25,1.16s-.38.66-.64.91-.54.45-.86.6c-.45.21-.91.32-1.38.32s-.82-.08-1.04-.24-.33-.34-.33-.54c0-.11.04-.21.13-.29s.2-.13.34-.13c.1,0,.19.02.27.05s.21.11.39.24c.29.2.59.3.89.3.46,0,.86-.17,1.2-.52s.52-.77.52-1.26-.15-.93-.46-1.34-.73-.74-1.28-.96c-.43-.18-1.01-.28-1.74-.3l1.52-3.09h2.85Z"/>
      <path class="st4" d="M68.05,49.29h6.04l-.65,2.11h-.22c.07-.31.11-.58.11-.83,0-.29-.09-.5-.26-.64-.13-.11-.47-.16-1.03-.16h-.63l-1.57,5.47c-.2.69-.3,1.11-.3,1.27,0,.15.06.27.19.37s.35.14.66.14h.27l-.07.22h-3.46l.06-.22h.15c.3,0,.54-.05.7-.15.11-.07.22-.19.31-.36s.22-.54.38-1.1l1.65-5.64h-.47c-.46,0-.83.06-1.1.18s-.5.29-.68.51-.31.54-.42.95h-.22l.56-2.11Z"/>
    </g>
  </g>
  <g id="_图层_2" data-name="图层_2">
    <polygon class="st2" points="50.99 111.3 51.03 98.3 54.53 90.58 54.53 111.3 50.99 111.3"/>
    <polygon class="st2" points="81.79 111.3 81.83 98.3 85.33 90.58 85.33 111.3 81.79 111.3"/>
    <polygon class="st2" points="112.59 111.3 112.63 98.3 116.13 90.58 116.13 111.3 112.59 111.3"/>
    <polygon class="st2" points="143.39 111.3 143.43 98.3 146.93 90.58 146.93 111.3 143.39 111.3"/>
    <polygon class="st2" points="174.19 111.3 174.23 98.3 177.73 90.58 177.73 111.3 174.19 111.3"/>
    <polygon class="st2" points="204.99 111.3 205.03 98.3 208.53 90.58 208.53 111.3 204.99 111.3"/>
    <polygon class="st2" points="235.79 111.3 235.83 98.3 239.33 90.58 239.33 111.3 235.79 111.3"/>
    <polygon class="st2" points="266.59 111.3 266.63 98.3 270.13 90.58 270.13 111.3 266.59 111.3"/>
    <polygon class="st2" points="297.39 111.3 297.43 98.3 300.93 90.58 300.93 111.3 297.39 111.3"/>
    <polygon class="st2" points="328.19 111.3 328.23 98.3 331.73 90.58 331.73 111.3 328.19 111.3"/>
    <g class="st3">
      <path class="st1" d="M31.4,85.3c15.42,0,15.42,52,30.83,52s15.41-52,30.82-52,15.41,52,30.83,52,15.41-52,30.83-52c15.42,0,15.42,52,30.83,52s15.42-52,30.83-52,15.42,52,30.83,52,15.42-52,30.83-52,15.42,52,30.84,52,15.42-52,30.84-52"/>
      <path class="st1" d="M31.4,137.3c15.42,0,15.42-52,30.83-52s15.41,52,30.82,52c15.41,0,15.41-52,30.83-52s15.41,52,30.83,52,15.42-52,30.83-52,15.42,52,30.83,52,15.42-52,30.83-52,15.42,52,30.83,52,15.42-52,30.84-52,15.42,52,30.84,52"/>
    </g>
    <g>
      <line class="st1" x1="23.87" y1="111.3" x2="358.36" y2="111.3"/>
      <path class="st4" d="M364.4,111.3c-2.84,1.05-6.36,2.85-8.55,4.76l1.72-4.76-1.72-4.75c2.18,1.9,5.71,3.7,8.55,4.75Z"/>
    </g>
    <g>
      <path class="st4" d="M362.77,118.03l-.46,1.59h.92l-.1.37h-.91l-1.01,3.46c-.11.37-.16.61-.16.72,0,.07.02.12.05.15s.07.05.11.05c.1,0,.23-.07.39-.21.09-.08.3-.32.63-.72l.19.15c-.36.52-.7.89-1.02,1.11-.22.15-.44.22-.66.22-.17,0-.31-.05-.42-.16s-.16-.25-.16-.41c0-.21.06-.53.19-.97l.98-3.39h-.88l.06-.23c.43-.12.79-.29,1.07-.52s.6-.64.96-1.21h.26Z"/>
      <path class="st4" d="M366.35,116.46l-2.88,8.5h-.47l2.88-8.5h.47Z"/>
      <path class="st4" d="M370.16,119.26v1.83h-.19c-.15-.57-.34-.96-.57-1.17s-.53-.31-.89-.31c-.27,0-.49.07-.66.22s-.25.3-.25.48c0,.22.06.41.19.56.12.16.37.33.74.51l.86.42c.79.39,1.19.9,1.19,1.53,0,.49-.18.88-.55,1.18s-.78.45-1.24.45c-.33,0-.7-.06-1.12-.18-.13-.04-.23-.06-.32-.06-.09,0-.16.05-.21.15h-.19v-1.92h.19c.11.55.32.96.63,1.24s.65.42,1.04.42c.27,0,.49-.08.66-.24s.25-.35.25-.57c0-.27-.09-.5-.28-.68s-.57-.42-1.13-.7-.94-.54-1.11-.76c-.18-.22-.26-.5-.26-.84,0-.44.15-.81.45-1.11s.69-.45,1.17-.45c.21,0,.47.04.77.13.2.06.33.09.4.09.06,0,.11-.01.15-.04s.08-.09.12-.18h.19Z"/>
    </g>
  </g>
  <g id="_图层_3" data-name="图层_3">
    <rect class="st2" x="30.3" y="156.61" width="30.8" height="27.83"/>
    <rect class="st2" x="81.63" y="156.61" width="30.8" height="27.83"/>
    <rect class="st2" x="132.96" y="156.61" width="30.8" height="27.83"/>
    <rect class="st2" x="184.29" y="156.61" width="30.8" height="27.83"/>
    <rect class="st2" x="235.62" y="156.61" width="30.8" height="27.83"/>
    <rect class="st2" x="286.95" y="156.61" width="30.8" height="27.83"/>
    <g class="st5">
      <path class="st1" d="M32.68,158.44c15.42,0,15.42,52,30.83,52s15.41-52,30.82-52,15.41,52,30.83,52,15.41-52,30.83-52,15.42,52,30.83,52,15.42-52,30.83-52,15.42,52,30.83,52,15.42-52,30.83-52,15.42,52,30.84,52,15.42-52,30.84-52"/>
      <path class="st1" d="M32.68,210.44c15.42,0,15.42-52,30.83-52s15.41,52,30.82,52,15.41-52,30.83-52,15.41,52,30.83,52,15.42-52,30.83-52,15.42,52,30.83,52,15.42-52,30.83-52,15.42,52,30.83,52,15.42-52,30.84-52,15.42,52,30.84,52"/>
    </g>
    <g>
      <line class="st1" x1="25.15" y1="184.44" x2="359.65" y2="184.44"/>
      <path class="st4" d="M365.68,184.44c-2.84,1.05-6.36,2.85-8.55,4.76l1.72-4.76-1.72-4.75c2.18,1.9,5.71,3.7,8.55,4.75Z"/>
    </g>
    <g>
      <path class="st4" d="M364.05,191.18l-.46,1.59h.92l-.1.37h-.91l-1.01,3.46c-.11.37-.16.61-.16.72,0,.07.02.12.05.15s.07.05.11.05c.1,0,.23-.07.39-.21.09-.08.3-.32.63-.72l.19.15c-.36.52-.7.89-1.02,1.11-.22.15-.44.22-.66.22-.17,0-.31-.05-.42-.16s-.16-.25-.16-.41c0-.21.06-.53.19-.97l.98-3.39h-.88l.06-.23c.43-.12.79-.29,1.07-.52s.6-.64.96-1.21h.26Z"/>
      <path class="st4" d="M367.63,189.6l-2.88,8.5h-.47l2.88-8.5h.47Z"/>
      <path class="st4" d="M371.45,192.41v1.83h-.19c-.15-.57-.34-.96-.57-1.17s-.53-.31-.89-.31c-.27,0-.49.07-.66.22s-.25.3-.25.48c0,.22.06.41.19.56.12.16.37.33.74.51l.86.42c.79.39,1.19.9,1.19,1.53,0,.49-.18.88-.55,1.18s-.78.45-1.24.45c-.33,0-.7-.06-1.12-.18-.13-.04-.23-.06-.32-.06-.09,0-.16.05-.21.15h-.19v-1.92h.19c.11.55.32.96.63,1.24s.65.42,1.04.42c.27,0,.49-.08.66-.24s.25-.35.25-.57c0-.27-.09-.5-.28-.68s-.57-.42-1.13-.7-.94-.54-1.11-.76c-.18-.22-.26-.5-.26-.84,0-.44.15-.81.45-1.11s.69-.45,1.17-.45c.21,0,.47.04.77.13.2.06.33.09.4.09.06,0,.11-.01.15-.04s.08-.09.12-.18h.19Z"/>
    </g>
  </g>
</svg>