<?xml version="1.0" encoding="UTF-8"?>
<svg id="_图层_1" data-name="图层_1" xmlns="http://www.w3.org/2000/svg" version="1.1" viewBox="0 0 400 271.12">
  <!-- Generator: Adobe Illustrator 29.5.1, SVG Export Plug-In . SVG Version: 2.1.0 Build 141)  -->
  <defs>
    <style>
      .st0 {
        stroke-dasharray: 4.01 4.01;
      }

      .st0, .st1, .st2 {
        fill: none;
        stroke-miterlimit: 10;
      }

      .st0, .st2 {
        stroke: #231815;
      }

      .st3 {
        fill: #e60012;
      }

      .st4 {
        fill: #231815;
      }

      .st1 {
        stroke: #e60012;
      }

      .st5 {
        fill: #f39800;
      }
    </style>
  </defs>
  <rect class="st4" x="338.94" y="32.34" width="4.2" height="95.78"/>
  <circle class="st5" cx="180.83" cy="80.23" r="2.65"/>
  <line class="st2" x1="338.94" y1="128.12" x2="21.15" y2="32.34"/>
  <line class="st2" x1="338.94" y1="32.34" x2="19.68" y2="129.37"/>
  <path class="st4" d="M349.39,41.27l-1.94,6.6c-.11.39-.17.63-.17.73,0,.05.02.09.05.13s.07.05.11.05c.07,0,.14-.03.2-.08.19-.15.4-.41.63-.77l.23.11c-.37.59-.74,1.02-1.1,1.27-.25.17-.51.26-.79.26-.26,0-.46-.07-.62-.21s-.23-.31-.23-.5c0-.14.05-.38.14-.7l1.58-5.4c.09-.3.13-.49.13-.59s-.04-.17-.12-.22c-.11-.08-.28-.11-.5-.1l.06-.22,1.97-.35h.35Z"/>
  <g>
    <line class="st2" x1="180.83" y1="80.23" x2="182.83" y2="80.23"/>
    <line class="st0" x1="186.83" y1="80.23" x2="337.04" y2="80.23"/>
    <line class="st2" x1="339.04" y1="80.23" x2="341.04" y2="80.23"/>
  </g>
  <rect class="st3" x="338.94" y="53.02" width="4.2" height="54.77"/>
  <g>
    <path class="st3" d="M347.84,77.71l-1.94,6.6c-.11.39-.17.63-.17.73,0,.05.02.09.05.13s.07.05.11.05c.07,0,.14-.03.2-.08.19-.15.4-.41.63-.77l.23.11c-.37.59-.74,1.02-1.1,1.27-.25.17-.51.26-.79.26-.26,0-.46-.07-.62-.21s-.23-.31-.23-.5c0-.14.05-.38.14-.7l1.58-5.4c.09-.3.13-.49.13-.59s-.04-.17-.12-.22c-.11-.08-.28-.11-.5-.1l.06-.22,1.97-.35h.35Z"/>
    <path class="st3" d="M349.24,81.43l-.13-.25c.6-.34.97-.59,1.11-.77.11-.13.17-.27.17-.41,0-.15-.1-.32-.3-.51s-.33-.34-.4-.47c-.05-.1-.08-.22-.08-.38,0-.25.09-.47.28-.66s.42-.28.69-.28.49.1.68.31.29.46.29.77c0,.49-.19.97-.56,1.44s-.96.87-1.75,1.19Z"/>
  </g>
  <line class="st1" x1="338.94" y1="53.02" x2="16.73" y2="108.97"/>
  <line class="st1" x1="338.94" y1="107.8" x2="17.02" y2="53.02"/>
  <rect class="st4" x="338.61" y="152.24" width="4.2" height="95.78"/>
  <circle class="st5" cx="251.27" cy="199.98" r="2.65"/>
  <circle class="st5" cx="180.5" cy="200.13" r="2.65"/>
  <line class="st2" x1="338.61" y1="248.02" x2="20.82" y2="152.24"/>
  <line class="st2" x1="338.61" y1="152.24" x2="19.35" y2="249.27"/>
  <path class="st4" d="M349.06,161.17l-1.94,6.6c-.11.39-.17.63-.17.73,0,.05.02.09.05.13s.07.05.11.05c.07,0,.14-.03.2-.08.19-.15.4-.41.63-.77l.23.11c-.37.59-.74,1.02-1.1,1.27-.25.17-.51.26-.79.26-.26,0-.46-.07-.62-.21s-.23-.31-.23-.5c0-.14.05-.38.14-.7l1.58-5.4c.09-.3.13-.49.13-.59s-.04-.17-.12-.22c-.11-.08-.28-.11-.5-.1l.06-.22,1.97-.35h.35Z"/>
  <g>
    <line class="st2" x1="180.5" y1="200.13" x2="182.5" y2="200.13"/>
    <line class="st0" x1="186.5" y1="200.13" x2="336.71" y2="200.13"/>
    <line class="st2" x1="338.71" y1="200.13" x2="340.71" y2="200.13"/>
  </g>
  <rect class="st3" x="338.61" y="172.92" width="4.2" height="54.77"/>
  <g>
    <path class="st3" d="M347.51,197.61l-1.94,6.6c-.11.39-.17.63-.17.73,0,.05.02.09.05.13s.07.05.11.05c.07,0,.14-.03.2-.08.19-.15.4-.41.63-.77l.23.11c-.37.59-.74,1.02-1.1,1.27-.25.17-.51.26-.79.26-.26,0-.46-.07-.62-.21s-.23-.31-.23-.5c0-.14.05-.38.14-.7l1.58-5.4c.09-.3.13-.49.13-.59s-.04-.17-.12-.22c-.11-.08-.28-.11-.5-.1l.06-.22,1.97-.35h.35Z"/>
    <path class="st3" d="M348.9,201.32l-.13-.25c.6-.34.97-.59,1.11-.77.11-.13.17-.27.17-.41,0-.15-.1-.32-.3-.51s-.33-.34-.4-.47c-.05-.1-.08-.22-.08-.38,0-.25.09-.47.28-.66s.42-.28.69-.28.49.1.68.31.29.46.29.77c0,.49-.19.97-.56,1.44s-.96.87-1.75,1.19Z"/>
  </g>
  <line class="st1" x1="338.61" y1="172.92" x2="87.29" y2="250.77"/>
  <line class="st1" x1="338.61" y1="227.69" x2="87" y2="147.85"/>
</svg>