<?xml version="1.0" encoding="utf-8"?>
<!-- Generator: Adobe Illustrator 28.0.0, SVG Export Plug-In . SVG Version: 6.00 Build 0)  -->
<svg version="1.1" id="图层_1" xmlns="http://www.w3.org/2000/svg" xmlns:xlink="http://www.w3.org/1999/xlink" x="0px" y="0px"
	 viewBox="0 0 321 160.5" style="enable-background:new 0 0 321 160.5;" xml:space="preserve">
<style type="text/css">
	.st0{fill:#010101;}
	.st1{fill:#C0437A;}
	.st2{fill:#FDDB5E;}
	.st3{fill:#41A8D1;}
	.st4{fill:#F9F9F9;}
	.st5{fill:#F8DD73;}
	.st6{fill:#5FA7CE;}
	.st7{fill:#B34C79;}
</style>
<g>
	<path d="M100.93,60.84c-0.13,3.28-0.03,6.56,0.05,9.84c0.15,5.92,0.42,11.83,0.82,17.74c0.4,5.9,0.91,11.8,1.6,17.68
		c0.19,1.64,0.39,3.29,0.58,4.93c0.09,0.79-0.33,1.29-1.13,1.27c-2.81-0.08-2.12,0.58-3.67-2.08c-6.52-11.19-10.7-23.19-12.5-36.01
		c-0.13-0.91-0.23-1.82-0.35-2.74c-0.02-0.14-0.07-0.28-0.11-0.43c-0.02,0.15-0.05,0.3-0.06,0.46c-0.13,4.11-0.22,8.22-0.38,12.33
		c-0.3,8-0.76,15.99-1.42,23.97c-0.27,3.21-0.54,6.42-0.8,9.63c-0.09,1.11-0.36,1.42-1.46,1.37c-0.75-0.04-1.21,0.05-1.11,1
		c0.06,0.61-0.37,0.99-1.04,0.99c-1.29,0-2.58,0.01-3.87,0c-0.61-0.01-1.66-1-1.71-1.63c-0.3-3.58-0.62-7.15-0.88-10.73
		C72.78,98.41,72.27,88.4,72,78.37c-0.15-5.55-0.25-11.1-0.2-16.66c0.01-0.8-0.26-0.93-0.99-0.93c-23.13,0.02-46.27,0.02-69.4,0
		c-0.45,0-1.28,0.33-1.28-0.4c0-0.72,0.83-0.39,1.28-0.39c23.1-0.02,46.2-0.02,69.31,0c0.79,0,1.08-0.13,1.08-1.03
		c-0.05-10.62,0.26-21.23,0.79-31.83c0.42-8.49,1-16.96,1.78-25.42c0.07-0.75,1.08-1.71,1.81-1.71c1.23-0.01,2.45,0,3.68,0
		c0.8,0,1.21,0.4,1.14,1.18c-0.06,0.69,0.24,0.81,0.85,0.8c1.46-0.03,1.62,0.18,1.73,1.66c0.38,4.8,0.79,9.6,1.16,14.4
		c0.48,6.33,0.82,12.67,1.04,19.02c0.15,4.23,0.27,8.46,0.44,12.69c0.44-3.49,0.99-6.97,1.74-10.41c2.25-10.31,6.05-20,11.4-29.09
		c0.05-0.08,0.09-0.16,0.14-0.24c0.87-1.45,2.07-1.98,3.71-1.52c0.61,0.17,0.86,0.66,0.76,1.35c-0.61,4.53-1.06,9.07-1.47,13.62
		c-0.77,8.53-1.27,17.07-1.5,25.62c-0.09,3.41-0.13,6.81-0.14,10.21c0,0.21,0.04,0.42,0.06,0.63c0.28,0.19,0.59,0.09,0.89,0.09
		c1.83,0,3.67-0.01,5.51-0.02c0.3,0.26,0.29,0.51,0,0.77c-0.27,0-0.55-0.01-0.82-0.01C104.65,60.78,102.79,60.67,100.93,60.84z
		 M86.54,59.43c0.02,6.31,0.44,11.66,1.32,16.96c2.01,12.01,6.11,23.27,12.25,33.79c0.58,0.99,1.22,1.35,2.32,1.26
		c0.6-0.05,0.71-0.23,0.64-0.77c-0.28-2.25-0.53-4.5-0.78-6.76c-0.83-7.5-1.39-15.02-1.78-22.55C100.19,74.75,100,68.13,100,61.5
		c0-0.57-0.15-0.72-0.72-0.72c-2.3,0.03-4.6,0.02-6.9,0.01c-0.33,0-0.84,0.17-0.86-0.39c-0.02-0.58,0.5-0.41,0.83-0.42
		c2.3-0.01,4.6-0.02,6.9,0c0.51,0.01,0.76-0.06,0.76-0.68c0.01-8.71,0.31-17.41,0.88-26.11c0.36-5.45,0.8-10.88,1.41-16.31
		c0.25-2.28,0.53-4.57,0.78-6.85c0.03-0.26,0.2-0.6-0.32-0.69c-1.29-0.23-1.87,0-2.55,1.14C91.17,25.89,86.66,42.53,86.54,59.43z
		 M85.41,59.44c-0.06-10.66-0.35-22.34-1.05-34.01c-0.44-7.28-0.97-14.56-1.66-21.83c-0.06-0.65-0.3-0.79-0.9-0.82
		c-0.9-0.05-0.87,0.57-0.98,1.12c-1.98,10.52-3.42,21.1-4.29,31.77c-0.64,7.83-0.95,15.67-1.04,23.52
		c-0.01,0.56,0.08,0.87,0.74,0.79c0.34-0.04,0.86-0.13,0.84,0.42c-0.02,0.53-0.54,0.41-0.87,0.38c-0.6-0.06-0.7,0.2-0.7,0.74
		c0.06,6.84,0.3,13.67,0.79,20.5c0.46,6.39,1.12,12.76,1.98,19.11c0.73,5.37,1.62,10.72,2.61,16.05c0.12,0.65,0.44,0.82,1.06,0.81
		c0.65-0.01,0.72-0.33,0.77-0.86c0.76-7.69,1.32-15.4,1.75-23.11C85.08,82.85,85.39,71.66,85.41,59.44z M72.95,81.49
		c0.29,9.32,0.8,18.62,1.47,27.92c0.21,3,0.48,5.99,0.73,8.98c0.09,1.1,0.55,1.51,1.65,1.52c0.89,0,1.78-0.02,2.67,0.01
		c0.51,0.02,0.7-0.14,0.7-0.67c0-1.05-0.14-2.07-0.34-3.1c-1.93-10.12-3.27-20.32-4.14-30.58c-0.67-7.95-1.04-15.91-1-23.88
		c0.01-0.99-0.5-0.86-1.12-0.9c-0.74-0.05-0.99,0.15-0.98,0.94C72.67,68.31,72.73,74.9,72.95,81.49z M72.95,39.28
		c-0.22,6.59-0.28,13.18-0.36,19.77c-0.01,0.79,0.24,1,0.98,0.94c0.62-0.05,1.13,0.09,1.13-0.9c-0.01-9.73,0.51-19.42,1.49-29.1
		c0.8-7.87,1.89-15.69,3.28-23.47c0.29-1.62,0.71-3.23,0.7-4.9c-0.01-0.62-0.2-0.8-0.8-0.77c-0.79,0.04-1.59,0.01-2.39,0.01
		c-1.35,0-1.75,0.37-1.85,1.7c-0.2,2.6-0.4,5.2-0.61,7.79C73.75,19.98,73.29,29.63,72.95,39.28z"/>
	<path d="M116,34.6c0.52-0.24,0.09-0.81,0.48-1.19c0.69-0.66,1.33-1.18,2.37-1.02c0.6,0.09,1.23-0.01,1.84,0.02
		c0.71,0.04,1.09,0.41,1.08,1.16c-0.03,2.17-0.09,1.71,1.75,1.75c0.92,0.02,1.84,0,2.76,0c0.9,0,1.28,0.36,1.28,1.24
		c0.01,1.55,0.01,1.6,1.59,1.53c1.47-0.06,1.84,0.24,1.98,1.84c0.59,6.42,0.92,12.85,0.98,19.29c0.01,0.62,0.18,0.79,0.78,0.76
		c0.98-0.05,1.96,0,2.94-0.02c1.25-0.02,1.16,0.26,1.11-1.19c-0.23-6.35-1.65-12.42-4.27-18.21c-0.25-0.55-0.37-1.08-0.35-1.67
		c0.03-0.77,0.01-1.53,0.01-2.3c0-0.18-0.06-0.4,0.01-0.54c0.64-1.3,1.84-0.6,2.78-0.7c0.59-0.06,0.93,0.43,0.94,1.1
		c0.01,1.28,0.03,1.27,1.3,1.31c0.75,0.02,1.05,0.44,1.13,1.16c0.41,3.75,0.68,7.52,0.85,11.28c0.14,3,0.17,6.01,0.21,9.02
		c0.01,0.6,0.16,0.77,0.77,0.77c9.27-0.02,18.53-0.02,27.8,0c0.61,0,0.77-0.17,0.78-0.77c0.07-7.96,0.95-15.84,2.54-23.64
		c0.15-0.74,0.54-1.2,1.39-1.13c0.58,0.05,1.17,0.02,1.75,0.01c0.79-0.01,1.18,0.42,1.23,1.16c0.34,5.02,0.71,10.04,0.82,15.07
		c0,0.18-0.01,0.36-0.02,0.54c0.09-0.18,0.22-0.36,0.25-0.55c0.28-1.66,0.51-3.33,0.81-4.99c0.62-3.47,1.56-6.86,2.65-10.21
		c0.23-0.71,0.65-1.11,1.49-1.03c0.76,0.07,1.53,0,2.3,0.02c0.5,0.02,0.78-0.06,0.75-0.69c-0.04-0.98,0.34-1.28,1.3-1.27
		c1.96,0.01,3.93,0.01,5.89,0c1.11-0.01,1.83,0.7,1.83,1.84c0,8.22,0.01,16.45-0.02,24.67c0,0.73,0.12,1.03,0.93,0.98
		c1.16-0.08,2.33-0.02,3.5-0.02c0.31,0,0.68-0.03,0.69,0.4c0.01,0.43-0.36,0.41-0.67,0.41c-1.2,0-2.4,0.05-3.59-0.02
		c-0.7-0.04-0.86,0.18-0.86,0.86c0.03,8.25,0.02,16.51,0.02,24.76c0,1.2-0.69,1.85-1.91,1.84c-1.93-0.01-3.87-0.01-5.8,0
		c-0.99,0-1.33-0.27-1.32-1.26c0.01-0.51-0.13-0.71-0.66-0.69c-0.83,0.03-1.66-0.04-2.48,0.02c-0.76,0.06-1.15-0.33-1.35-0.95
		c-1.59-4.77-2.74-9.65-3.41-14.64c-0.05-0.39-0.17-0.77-0.25-1.15c-0.03,0.35-0.07,0.71-0.07,1.06c-0.12,4.85-0.47,9.68-0.8,14.52
		c-0.05,0.73-0.43,1.17-1.23,1.15c-0.61-0.01-1.23-0.03-1.84,0.01c-0.77,0.04-1.14-0.4-1.27-1.04c-1.58-7.74-2.47-15.56-2.55-23.46
		c-0.01-0.84-0.24-1.05-1.07-1.04c-9.11,0.03-18.22,0.03-27.34,0c-0.78,0-0.95,0.23-0.95,0.97c0.02,6.69-0.36,13.37-1.05,20.02
		c-0.1,0.94-0.45,1.28-1.41,1.21c-0.86-0.06-1.09,0.26-1.04,1.08c0.07,1.13-0.24,1.37-1.38,1.4c-2.3,0.06-2.34-0.03-2.35-2.29
		c-0.01-1.44,0.24-2.74,0.83-4.06c2.43-5.53,3.61-11.35,3.84-17.38c0.03-0.68-0.08-0.99-0.87-0.94c-1.1,0.08-2.21,0.04-3.31,0.01
		c-0.52-0.02-0.67,0.15-0.68,0.67c-0.04,4.45-0.17,8.89-0.5,13.33c-0.17,2.29-0.36,4.59-0.57,6.88c-0.06,0.6-0.4,1-1.08,1
		c-0.12,0-0.25,0-0.37,0c-0.64,0.01-1.43-0.2-1.88,0.1c-0.45,0.3-0.07,1.14-0.16,1.73c-0.09,0.61-0.44,0.97-1.1,0.96
		c-1.29-0.01-2.58,0.02-3.87-0.02c-0.66-0.02-0.89,0.23-0.84,0.85c0.02,0.31,0,0.61,0.01,0.92c0.03,0.76-0.39,1.11-1.09,1.16
		c-0.52,0.03-1.05-0.04-1.56,0.01c-1.73,0.16-2.31-0.17-2.97-2.11c-0.02-0.04-0.09-0.07-0.14-0.1c-0.45-0.41-0.38-0.97-0.39-1.5
		c0.05-0.08,0.12-0.15,0.14-0.23c1.59-6.63,2.55-13.34,2.8-20.15c0.25-6.91-0.14-13.78-1.3-20.59c-0.43-2.55-0.83-5.12-1.64-7.6
		C115.63,35.57,115.54,35.02,116,34.6z M131.26,53.19c-0.04,0-0.08,0-0.11,0c-0.09-1.81-0.14-3.62-0.27-5.42
		c-0.19-2.69-0.43-5.38-0.67-8.06c-0.02-0.24,0.08-0.55-0.29-0.7c-0.92-0.38-2.39,0.09-2.91,0.96c-3.36,5.62-5.24,11.7-5.59,18.24
		c-0.44,8.25,1.53,15.89,5.8,22.96c0.67,1.11,1.7,0.57,2.56,0.58c0.71,0.01,0.44-0.78,0.48-1.18c0.61-6.32,0.96-12.65,1.01-19
		c0.01-0.69-0.22-0.79-0.83-0.78c-2.39,0.03-4.78,0.03-7.17,0c-0.44-0.01-1.27,0.36-1.25-0.41c0.02-0.72,0.84-0.36,1.29-0.37
		c2.3-0.04,4.6-0.05,6.9,0c0.79,0.02,1.11-0.12,1.07-1.02C131.2,57.05,131.26,55.12,131.26,53.19z M184.22,59.98
		c2.09,0,4.17-0.03,6.26,0.02c0.68,0.01,0.87-0.15,0.85-0.86c-0.21-8.1-2.25-15.71-6.07-22.85c-0.36-0.68-0.75-0.97-1.55-0.96
		c-2.44,0.05-2.47,0.01-3.19,2.33c-2.15,6.91-3.24,13.99-3.44,21.23c-0.03,0.98,0.28,1.15,1.16,1.12
		C180.23,59.93,182.22,59.98,184.22,59.98z M184.21,60.8c-2.02,0-4.05,0.04-6.07-0.02c-0.81-0.02-1.08,0.15-1.06,1.03
		c0.17,7.24,1.29,14.31,3.4,21.23c0.73,2.4,0.76,2.37,3.33,2.4c0.62,0.01,1.03-0.15,1.33-0.71c3.9-7.24,5.98-14.96,6.2-23.19
		c0.02-0.61-0.17-0.78-0.77-0.77C188.45,60.82,186.33,60.8,184.21,60.8z M124.07,36.16c0,0.01,0,0.01,0,0.02
		c-0.64,0-1.29,0.01-1.93,0c-0.77-0.01-1.2-0.39-1.23-1.17c-0.01-0.37,0.02-0.74,0.01-1.1c0-0.21,0.03-0.53-0.22-0.54
		c-0.99-0.06-2.03-0.32-2.97,0.13c-0.71,0.35-1.28,2.12-1.09,2.93c1.35,5.58,2.22,11.23,2.6,16.95c0.7,10.43-0.15,20.75-2.6,30.92
		c-0.3,1.24,0.47,2.06,1.05,2.97c0.15,0.24,0.42,0.21,0.67,0.21c0.49,0,0.99-0.05,1.47,0.01c0.92,0.12,1.22-0.27,1.08-1.13
		c-0.01-0.09,0-0.18,0-0.28c-0.01-1.13,0.34-1.48,1.45-1.47c1.2,0.01,2.39,0.01,3.59,0c0.29,0,0.7,0.07,0.7-0.38
		c0-1.08,0.16-2.15-0.48-3.2c-3.28-5.41-5.12-11.31-5.57-17.6c-0.61-8.58,1.28-16.6,5.71-23.99c0.59-0.98,0.53-2.09,0.23-3.02
		c-0.2-0.63-1.27-0.16-1.94-0.27C124.44,36.14,124.25,36.16,124.07,36.16z M175.92,70.22c0-2.88-0.01-5.76,0.01-8.65
		c0-0.57-0.11-0.81-0.75-0.79c-1.53,0.05-3.07,0.05-4.6,0c-0.69-0.02-0.87,0.16-0.86,0.85c0.11,7.47,0.86,14.87,2.32,22.19
		c0.39,1.94,0.02,1.55,2.02,1.62c0.63,0.02,0.83-0.17,0.88-0.81C175.34,79.84,175.57,75.03,175.92,70.22z M175.92,50.77
		c-0.34-4.87-0.58-9.74-0.97-14.6c-0.06-0.71-0.3-0.92-0.95-0.83c-0.21,0.03-0.43,0.04-0.64,0c-0.78-0.14-1.09,0.21-1.21,0.95
		c-0.31,1.97-0.71,3.92-1.02,5.88c-0.89,5.67-1.33,11.38-1.41,17.13c-0.01,0.6,0.2,0.7,0.74,0.69c1.53-0.03,3.07-0.05,4.6,0
		c0.68,0.02,0.89-0.15,0.88-0.86C175.9,56.35,175.92,53.56,175.92,50.77z M193,73.82c0-4.08,0-8.16-0.01-12.24
		c0-0.31,0.22-0.81-0.43-0.79c-0.59,0.02-0.35,0.49-0.36,0.76c-0.22,8.22-2.26,15.96-6.12,23.21c-0.33,0.63-0.43,1.25-0.44,1.93
		c0,0.56,0.21,0.74,0.77,0.73c1.75-0.03,3.5-0.01,5.24-0.01c1.08,0,1.34-0.26,1.34-1.36C193,81.98,193,77.9,193,73.82z M193,46.85
		c0-4.08,0-8.16,0-12.23c0-0.97-0.3-1.26-1.26-1.26c-1.53-0.01-3.07,0-4.6,0c-1.53,0-1.83,0.4-1.39,1.91
		c0.07,0.26,0.22,0.5,0.35,0.74c3.07,5.83,5.04,11.99,5.76,18.55c0.18,1.65,0.32,3.29,0.34,4.95c0,0.26,0,0.48,0.37,0.48
		c0.33,0,0.44-0.14,0.43-0.44c0-0.21,0-0.43,0-0.64C193,54.89,193,50.87,193,46.85z M133.17,37.96c0,0.85,0.01,1.67,0.39,2.51
		c1.92,4.26,3.19,8.72,3.81,13.37c0.24,1.79,0.39,3.59,0.41,5.4c0,0.27-0.04,0.59,0.26,0.73c0.14,0.06,0.4,0.05,0.52-0.04
		c0.29-0.21,0.17-0.56,0.16-0.86c-0.08-6.56-0.4-13.1-1.03-19.63c-0.05-0.55-0.23-0.8-0.84-0.79c-1.43,0.02-1.6-0.19-1.62-1.71
		c0-0.34,0-0.66-0.46-0.76c-1.23-0.27-1.6,0-1.6,1.24C133.17,37.59,133.17,37.78,133.17,37.96z M138.73,65.46
		c0-1.32,0.01-2.63,0-3.95c0-0.31,0.11-0.71-0.44-0.73c-0.59-0.02-0.5,0.4-0.51,0.76c0,0.06,0,0.12,0,0.18
		c-0.13,6.06-1.35,11.9-3.76,17.45c-0.67,1.54-0.89,3.07-0.87,4.71c0.02,1.04,0.71,0.67,1.21,0.73c0.61,0.08,0.9-0.15,0.88-0.82
		c-0.04-1.42,0.21-1.7,1.57-1.67c0.64,0.01,0.84-0.22,0.9-0.83C138.18,76.03,138.55,70.75,138.73,65.46z"/>
	<path d="M300.04,60.8c-6.57,0-13.13,0.01-19.7-0.02c-0.72,0-0.91,0.18-0.9,0.91c0.12,11.03,1.14,21.98,3.14,32.83
		c0.28,1.53-0.05,1.94-1.58,1.94c-0.55,0-1.11-0.02-1.66,0.01c-0.75,0.04-1.46,0.07-1.92-0.7c-0.18-0.31-0.54-0.23-0.84-0.23
		c-1.2,0-2.4,0.12-3.58-0.03c-1.61-0.2-3.22-0.14-4.83-0.18c-0.54-0.01-1.02-0.43-0.93-1.11c0.11-0.79-0.24-1.02-0.99-0.99
		c-1.3,0.05-2.6-0.01-3.9,0.03c-0.81,0.03-1.16-0.41-1.29-1.11c-1.86-10.12-2.85-20.33-2.92-30.63c0-0.66-0.27-0.73-0.81-0.72
		c-4.11,0.02-8.22,0.01-12.33,0.01c-0.25,0-0.49,0-0.74-0.01c-0.25-0.02-0.4-0.14-0.39-0.41c0.01-0.27,0.17-0.38,0.42-0.39
		c0.21-0.01,0.43,0,0.64,0c4.11,0,8.22-0.02,12.33,0.02c0.67,0.01,0.87-0.15,0.88-0.85c0.09-10.11,0.99-20.14,2.86-30.08
		c0.27-1.42,0.37-1.51,1.83-1.51c1.18,0,2.36-0.02,3.55,0.01c0.62,0.02,0.89-0.2,0.87-0.85c-0.02-0.93,0.37-1.29,1.31-1.26
		c1.03,0.04,2.14,0.21,3.09,0.01c1.76-0.37,3.49-0.08,5.23-0.22c0.19-0.02,0.39-0.02,0.49-0.19c0.52-0.88,1.36-0.76,2.19-0.73
		c0.55,0.02,1.1,0.01,1.66,0c1.21-0.01,1.63,0.49,1.41,1.7c-0.25,1.39-0.52,2.77-0.74,4.16c-1.54,9.58-2.35,19.23-2.46,28.94
		c-0.01,0.79,0.28,0.87,0.94,0.87c7.49-0.02,14.97-0.01,22.46-0.01c5.64,0,11.29,0,16.93,0c0.25,0,0.49-0.01,0.74,0.02
		c0.2,0.02,0.34,0.15,0.35,0.36c0.02,0.26-0.14,0.4-0.38,0.42c-0.24,0.02-0.49,0.02-0.74,0.02C313.17,60.8,306.6,60.8,300.04,60.8z
		 M259,65.78c0.34,8.58,1.26,17.1,2.79,25.55c0.09,0.52,0.07,1.09,0.92,1.08c0.8-0.01,1.26-0.1,1.47-1.03
		c1-4.42,1.87-8.86,2.47-13.35c0.74-5.5,1.13-11.03,1.2-16.58c0.01-0.52-0.14-0.68-0.66-0.67c-2.51,0.03-5.03,0.03-7.54,0
		c-0.53-0.01-0.67,0.16-0.66,0.68C259.02,62.9,259,64.34,259,65.78z M259,54.9c0,1.44,0.03,2.88-0.01,4.32
		c-0.02,0.59,0.13,0.79,0.75,0.78c2.36-0.04,4.72-0.05,7.08,0.01c0.84,0.02,1.06-0.2,1.05-1.05c-0.16-10.02-1.4-19.9-3.7-29.65
		c-0.22-0.94-0.74-0.91-1.45-0.94c-0.85-0.04-0.83,0.55-0.92,1.07C260.27,37.86,259.35,46.34,259,54.9z M280.03,95.57
		c2.06-0.03,1.93,0.37,1.53-1.86c-1.36-7.71-2.28-15.46-2.68-23.27c-0.16-3-0.23-6.01-0.26-9.01c-0.01-0.66-0.35-0.73-0.8-0.6
		c-0.41,0.11-0.21,0.52-0.21,0.79c-0.13,8.09-1.06,16.07-2.9,23.96c-0.62,2.65-1.34,5.28-2.12,7.89c-0.33,1.12-0.29,1.18,0.89,1.18
		c1.17,0,2.33,0,3.5,0c0.27,0,0.59-0.1,0.76,0.19C278.29,95.74,279.17,95.6,280.03,95.57z M275.15,26.13c-0.4,0-0.8,0-1.2,0
		c-1.74,0-1.74,0-1.22,1.69c2.2,7.25,3.68,14.65,4.36,22.2c0.28,3.11,0.46,6.23,0.49,9.36c0,0.38,0.03,0.63,0.53,0.62
		c0.45-0.01,0.5-0.24,0.48-0.58c-0.01-0.15,0-0.31,0-0.46c0.06-5.09,0.28-10.17,0.73-15.24c0.53-5.89,1.33-11.74,2.4-17.56
		c0.13-0.71,0.04-1.04-0.78-0.97c-0.64,0.06-1.29,0.03-1.93,0c-0.4-0.01-0.73,0.07-0.95,0.41c-0.33,0.49-0.79,0.58-1.35,0.53
		C276.2,26.09,275.67,26.13,275.15,26.13z M270.59,50.96c0,2.79,0.01,5.58-0.01,8.37c0,0.52,0.15,0.68,0.67,0.67
		c1.53-0.03,3.07-0.06,4.6,0.01c0.77,0.03,0.89-0.25,0.88-0.93c-0.05-5.8-0.6-11.56-1.56-17.28c-0.7-4.16-1.63-8.28-2.85-12.32
		c-0.04-0.14-0.11-0.27-0.17-0.4c-0.03,0.14-0.08,0.29-0.09,0.43c-0.18,1.95-0.37,3.9-0.52,5.86
		C271.13,40.55,270.84,45.75,270.59,50.96z M276.71,64.94c0-1.16-0.03-2.33,0.01-3.49c0.02-0.53-0.16-0.68-0.68-0.66
		c-1.35,0.03-2.7,0.01-4.04,0.01c-1.42,0-1.42,0-1.41,1.37c0.01,8,0.39,15.99,0.99,23.96c0.12,1.68,0.31,3.35,0.46,5.03
		c0.02,0.18,0.07,0.36,0.1,0.54c0.08-0.18,0.16-0.37,0.24-0.55c0.02-0.06,0.04-0.12,0.06-0.17
		C274.85,82.46,276.28,73.79,276.71,64.94z M266.27,28.38c-1.48-0.01-1.48-0.01-1.14,1.39c1.74,7.32,2.87,14.73,3.29,22.24
		c0.14,2.45,0.21,4.9,0.29,7.35c0.01,0.38,0.04,0.63,0.54,0.62c0.47-0.01,0.46-0.27,0.46-0.59c0-0.34,0.01-0.67,0.01-1.01
		c0.07-8.04,0.37-16.07,1.05-24.08c0.2-2.41,0.39-4.83,0.6-7.24c0.05-0.54-0.08-0.8-0.68-0.75c-0.67,0.05-1.35,0.02-2.02,0.01
		c-0.36-0.01-0.55,0.09-0.6,0.5C267.87,28.4,267.86,28.39,266.27,28.38z M269.7,94.45c1.79,0,1.79,0,1.61-1.79
		c-0.85-8.3-1.34-16.63-1.51-24.97c-0.04-2.12-0.06-4.23-0.1-6.35c0-0.22,0.09-0.54-0.3-0.54c-0.2,0-0.5-0.11-0.59,0.1
		c-0.11,0.23-0.1,0.53-0.1,0.8c-0.1,7.16-0.72,14.26-1.94,21.32c-0.5,2.87-1.07,5.72-1.77,8.54c-0.17,0.68-0.03,0.9,0.66,0.84
		c0.43-0.04,0.86-0.04,1.29-0.02c0.73,0.02,1.21,0.42,1.13,1.14c-0.09,0.85,0.28,1.02,0.99,0.93
		C269.27,94.43,269.49,94.45,269.7,94.45z"/>
	<path class="st0" d="M229.21,60.79c-1.83,0.03-1.82,0.03-1.87,1.86c-0.24,8.08-1.75,15.93-4.44,23.55
		c-0.24,0.69-0.63,1.11-1.48,1.06c-1.16-0.07-2.34-0.12-3.49,0.01c-1.12,0.12-1.69-0.53-2.06-1.31c-3.09-6.36-5.01-13.05-5.65-20.11
		c-0.99-10.81,0.89-21.09,5.57-30.87c0.43-0.9,1.03-1.59,2.24-1.47c1.12,0.11,2.27,0.08,3.4,0c0.8-0.05,1.21,0.33,1.44,0.98
		c2.12,6,3.55,12.15,4.14,18.49c0.19,2.02,0.38,4.03,0.33,6.06c-0.02,0.76,0.19,1.06,0.96,0.94c0.3-0.05,0.61,0,0.92,0
		C229.51,60.26,229.49,60.52,229.21,60.79z M219.94,59.98c1.84,0,3.68-0.05,5.52,0.02c0.85,0.03,1.09-0.21,1.06-1.06
		c-0.13-3.58-0.42-7.15-0.99-10.69c-0.72-4.48-1.88-8.85-3.35-13.13c-0.17-0.51-0.44-0.73-1-0.7c-0.95,0.05-1.91,0.08-2.85-0.01
		c-1-0.09-1.51,0.39-1.9,1.21c-3.4,7.17-5.27,14.71-5.59,22.64c-0.21,5.14,0.31,10.22,1.47,15.22c0.95,4.09,2.36,8.03,4.18,11.81
		c0.34,0.71,0.8,1.17,1.7,1.09c0.88-0.08,1.78-0.07,2.67,0c0.81,0.06,1.17-0.23,1.44-1.01c2.66-7.7,4.06-15.61,4.23-23.75
		c0.01-0.64-0.18-0.83-0.82-0.83c-3.68,0.03-7.36,0.02-11.04,0c-0.43,0-1.2,0.29-1.22-0.38c-0.02-0.72,0.75-0.41,1.18-0.42
		C216.38,59.96,218.16,59.98,219.94,59.98z"/>
	<path class="st1" d="M239.37,60.31c0-4.2-0.07-8.4,0.02-12.6c0.08-3.98,0.33-7.96,0.47-11.94c0.02-0.57,0.49-0.73,0.7-1.1
		c0.95-1.71,2.59-1.43,4.1-1.44c0.57,0,0.96,0.44,0.91,1.05c-0.04,0.58,0.17,0.73,0.72,0.73c1.53,0.01,1.88,0.57,1.28,2
		c-3.59,8.42-5.13,17.21-4.71,26.35c0.33,7.14,1.99,13.97,4.76,20.55c0.53,1.25,0.13,1.88-1.2,1.86c-0.59-0.01-0.87,0.08-0.86,0.79
		c0.01,0.64-0.43,1.04-1.15,0.98c-0.12-0.01-0.25-0.05-0.37-0.02c-1.55,0.32-2.66-0.32-3.62-1.5c-0.35-0.43-0.55-0.79-0.58-1.35
		c-0.39-7.78-0.63-15.56-0.57-23.34c0-0.34-0.04-0.67-0.07-1.01C239.26,60.31,239.32,60.31,239.37,60.31z M243.64,34.08
		c-1.64,0-2.91,1.13-2.97,2.54c-0.24,5.72-0.51,11.45-0.55,17.18c-0.04,5.39-0.05,10.79,0.06,16.18c0.1,4.81,0.32,9.61,0.53,14.42
		c0.05,1.16,0.96,1.71,1.72,2.21c0.47,0.31,1.31,0.09,1.98,0.06c0.26-0.01,0.3-0.27,0.29-0.5c-0.04-0.94,0.41-1.32,1.34-1.28
		c0.99,0.04,1.03-0.04,0.65-0.97c-2.15-5.2-3.65-10.57-4.31-16.18c-0.63-5.39-0.58-10.76,0.18-16.12c0.72-5.09,2.15-9.98,4.12-14.73
		c0.4-0.96,0.36-1.04-0.7-0.99c-0.65,0.03-1.25-0.19-1.24-0.79C244.78,34.03,244.25,33.95,243.64,34.08z"/>
	<path class="st1" d="M229.21,60.79c0.28-0.27,0.3-0.53,0-0.8c0.13-4.66,0.27-9.31,0.4-13.97c0.1-3.52,0.19-7.05,0.29-10.57
		c0.03-1.02,0.31-1.29,1.32-1.26c1.9,0.04,2.22,0.45,2.4,2.39c0.32,3.26,0.75,6.51,1.13,9.76c0.42,3.53,0.64,7.08,0.76,10.63
		c0.18,5.59-0.08,11.15-0.65,16.7c-0.33,3.2-0.77,6.38-1.18,9.57c-0.13,0.98,0.05,2.03-0.64,2.91c-0.26,0.33-0.49,0.5-0.91,0.44
		c-0.33-0.04-0.67-0.02-1.01-0.01c-0.89,0.01-1.21-0.29-1.23-1.18c-0.13-4.9-0.26-9.8-0.39-14.71
		C229.42,67.4,229.31,64.09,229.21,60.79z M230.11,59.42c0.02,5,0.17,9.01,0.31,13.02c0.14,4.1,0.18,8.21,0.28,12.31
		c0.02,0.98,0.3,1.2,1.24,1.01c0.6-0.12,0.71-0.6,0.76-1.11c0.14-1.34,0.22-2.69,0.41-4.02c0.82-5.55,1.41-11.12,1.56-16.72
		c0.15-5.46-0.02-10.9-0.65-16.33c-0.4-3.4-0.78-6.81-1.2-10.21c-0.07-0.6-0.04-1.21-0.26-1.81c-0.26-0.68-0.79-0.56-1.3-0.55
		c-0.59,0.01-0.56,0.46-0.57,0.86C230.49,44.05,230.29,52.23,230.11,59.42z"/>
	<path class="st1" d="M116,34.6c-0.46,0.42-0.37,0.97-0.39,1.5c-5.73,6.94-8.2,15-8.28,23.9c-1.83,0.01-3.67,0.03-5.5,0.02
		c-0.3,0-0.61,0.1-0.89-0.09c0.69-0.14,1.61,0.28,2.02-0.2c0.47-0.54,0.14-1.47,0.15-2.23c0.13-8.52,0.61-17.01,2.38-25.37
		c0.24-1.14,0.52-2.27,0.81-3.39c0.25-0.98,0.96-1.51,1.97-1.51c1.23,0,2.45-0.01,3.68,0c0.89,0.01,1.25,0.38,1.25,1.28
		c0,1.2,0.03,2.39-0.01,3.59c-0.02,0.63,0.17,0.93,0.83,0.84c0.09-0.01,0.18,0,0.28,0C115.84,32.95,115.97,33.07,116,34.6z
		 M104,55.72c0,0.86,0,1.72,0,2.57c0,1.65,0,1.62,1.68,1.62c0.62,0,0.75-0.21,0.77-0.79c0.05-1.68,0.17-3.36,0.43-5.03
		c1.05-6.82,3.48-13.04,7.93-18.39c0.43-0.52,0.41-1.13,0.23-1.65c-0.19-0.55-0.8-0.29-1.23-0.27c-1.05,0.06-1.51-0.37-1.5-1.45
		c0.01-1.16-0.02-2.33,0.02-3.49c0.02-0.56-0.18-0.76-0.74-0.74c-1.04,0.03-2.08,0.04-3.13,0c-0.78-0.03-1.2,0.32-1.37,1.05
		c-0.28,1.19-0.62,2.37-0.86,3.57C104.69,40.32,104.16,48,104,55.72z"/>
	<path class="st1" d="M115.61,84.67c0.01,0.53-0.06,1.08,0.39,1.5c-0.03,1.53-0.16,1.71-1.7,1.64c-0.89-0.04-1.18,0.23-1.12,1.12
		c0.08,1.13,0.01,2.27,0.03,3.4c0.01,0.8-0.38,1.19-1.16,1.2c-1.38,0.01-2.76,0.02-4.14,0c-0.9-0.02-1.36-0.67-1.56-1.41
		c-1.02-3.66-1.67-7.4-2.14-11.17c-0.79-6.39-1.08-12.81-1.08-19.25c0-0.62-0.16-0.9-0.82-0.83c-0.45,0.04-0.92-0.01-1.37-0.03
		c1.86-0.16,3.71-0.05,5.57-0.07c0.27,0,0.55,0.01,0.82,0.01C107.4,69.67,109.89,77.73,115.61,84.67z M104,64.85
		c0.11,6.25,0.49,12.24,1.35,18.2c0.4,2.82,0.97,5.61,1.68,8.37c0.22,0.85,0.64,1.33,1.6,1.26c0.92-0.07,1.84-0.05,2.76,0
		c0.69,0.04,1-0.14,0.95-0.9c-0.07-1.07-0.01-2.15-0.02-3.22c-0.01-1.26,0.37-1.62,1.67-1.52c1.04,0.07,1.17-0.07,1.13-1.1
		c-0.01-0.36-0.14-0.64-0.36-0.91c-0.52-0.64-1.04-1.29-1.51-1.97c-4.34-6.21-6.38-13.17-6.78-20.67c-0.08-1.55-0.08-1.52-1.73-1.51
		c-0.55,0.01-0.76,0.15-0.74,0.73C104.03,62.75,104,63.92,104,64.85z"/>
	<path d="M166.4,33.51c0-1.59-0.01-3.19,0-4.78c0-0.34-0.13-0.84,0.42-0.84c0.47,0,0.4,0.45,0.4,0.78c0,3.19,0,6.38,0,9.57
		c0,0.31,0.12,0.77-0.38,0.79c-0.59,0.02-0.43-0.49-0.43-0.82C166.4,36.64,166.4,35.07,166.4,33.51z"/>
	<path d="M167.23,87.34c0,1.59,0,3.19,0,4.78c0,0.32,0.08,0.76-0.41,0.77c-0.49,0-0.41-0.43-0.41-0.76c0-3.22,0-6.44,0-9.66
		c0-0.33-0.06-0.75,0.45-0.72c0.44,0.03,0.37,0.42,0.37,0.71C167.23,84.09,167.23,85.71,167.23,87.34z"/>
	<path class="st2" d="M184.22,59.98c-1.99,0-3.99-0.05-5.98,0.02c-0.88,0.03-1.19-0.14-1.16-1.12c0.21-7.23,1.29-14.31,3.44-21.23
		c0.72-2.32,0.75-2.27,3.19-2.33c0.8-0.02,1.19,0.28,1.55,0.96c3.82,7.14,5.86,14.75,6.07,22.85c0.02,0.72-0.17,0.88-0.85,0.86
		C188.39,59.95,186.3,59.98,184.22,59.98z"/>
	<path class="st2" d="M184.21,60.8c2.12,0,4.23,0.02,6.35-0.01c0.6-0.01,0.79,0.16,0.77,0.77c-0.22,8.23-2.3,15.95-6.2,23.19
		c-0.3,0.56-0.71,0.72-1.33,0.71c-2.57-0.03-2.59,0-3.33-2.4c-2.11-6.92-3.23-14-3.4-21.23c-0.02-0.88,0.25-1.05,1.06-1.03
		C180.16,60.84,182.19,60.8,184.21,60.8z"/>
	<path class="st3" d="M124.07,36.16c0.18,0,0.37-0.02,0.55,0c0.67,0.1,1.74-0.36,1.94,0.27c0.29,0.92,0.36,2.03-0.23,3.02
		c-4.44,7.39-6.33,15.41-5.71,23.99c0.45,6.29,2.28,12.19,5.57,17.6c0.64,1.05,0.48,2.11,0.48,3.2c0,0.45-0.41,0.38-0.7,0.38
		c-1.2,0.01-2.39,0.01-3.59,0c-1.11-0.01-1.46,0.34-1.45,1.47c0,0.09-0.01,0.19,0,0.28c0.14,0.86-0.17,1.25-1.08,1.13
		c-0.48-0.06-0.98-0.01-1.47-0.01c-0.25,0-0.52,0.02-0.67-0.21c-0.58-0.91-1.35-1.72-1.05-2.97c2.44-10.17,3.3-20.49,2.6-30.92
		c-0.38-5.72-1.25-11.37-2.6-16.95c-0.2-0.81,0.38-2.58,1.09-2.93c0.93-0.46,1.97-0.19,2.97-0.13c0.25,0.01,0.22,0.33,0.22,0.54
		c0,0.37-0.03,0.74-0.01,1.1c0.03,0.78,0.46,1.16,1.23,1.17c0.64,0.01,1.29,0,1.93,0C124.07,36.17,124.07,36.17,124.07,36.16z"/>
	<path class="st3" d="M133.17,37.96c0-0.18,0-0.37,0-0.55c0-1.25,0.37-1.52,1.6-1.24c0.46,0.1,0.46,0.42,0.46,0.76
		c0.02,1.52,0.19,1.73,1.62,1.71c0.61-0.01,0.79,0.23,0.84,0.79c0.63,6.53,0.95,13.07,1.03,19.63c0,0.29,0.13,0.64-0.16,0.86
		c-0.12,0.09-0.38,0.11-0.52,0.04c-0.3-0.13-0.26-0.46-0.26-0.73c-0.02-1.81-0.17-3.61-0.41-5.4c-0.62-4.64-1.89-9.1-3.81-13.37
		C133.19,39.63,133.17,38.81,133.17,37.96z"/>
	<path class="st3" d="M138.73,65.46c-0.19,5.29-0.56,10.57-1.03,15.85c-0.05,0.61-0.26,0.84-0.9,0.83
		c-1.36-0.03-1.61,0.25-1.57,1.67c0.02,0.67-0.28,0.89-0.88,0.82c-0.5-0.06-1.19,0.31-1.21-0.73c-0.03-1.64,0.2-3.16,0.87-4.71
		c2.41-5.56,3.63-11.39,3.76-17.45c0-0.06,0-0.12,0-0.18c0.01-0.36-0.08-0.78,0.51-0.76c0.54,0.02,0.43,0.42,0.44,0.73
		C138.74,62.83,138.73,64.14,138.73,65.46z"/>
	<path class="st4" d="M280.03,95.57c-0.85,0.03-1.73,0.17-2.29-0.74c-0.17-0.28-0.49-0.19-0.76-0.19c-1.17,0-2.33,0-3.5,0
		c-1.18,0-1.23-0.05-0.89-1.18c0.78-2.61,1.5-5.23,2.12-7.89c1.84-7.88,2.76-15.87,2.9-23.96c0-0.27-0.19-0.68,0.21-0.79
		c0.45-0.13,0.79-0.06,0.8,0.6c0.03,3.01,0.11,6.01,0.26,9.01c0.41,7.82,1.33,15.57,2.68,23.27
		C281.95,95.94,282.08,95.54,280.03,95.57z"/>
	<path class="st4" d="M275.15,26.13c0.52,0,1.05-0.04,1.56,0.01c0.56,0.05,1.02-0.04,1.35-0.53c0.23-0.34,0.56-0.43,0.95-0.41
		c0.64,0.02,1.29,0.06,1.93,0c0.81-0.08,0.91,0.26,0.78,0.97c-1.07,5.81-1.87,11.67-2.4,17.56c-0.45,5.07-0.67,10.15-0.73,15.24
		c0,0.15-0.01,0.31,0,0.46c0.02,0.34-0.03,0.57-0.48,0.58c-0.5,0.02-0.53-0.23-0.53-0.62c-0.03-3.13-0.21-6.24-0.49-9.36
		c-0.69-7.55-2.16-14.95-4.36-22.2c-0.51-1.69-0.52-1.69,1.22-1.69C274.36,26.13,274.75,26.13,275.15,26.13z"/>
	<path class="st4" d="M266.27,28.38c1.6,0.01,1.61,0.01,1.79-1.56c0.05-0.41,0.23-0.51,0.6-0.5c0.67,0.02,1.35,0.04,2.02-0.01
		c0.6-0.04,0.73,0.22,0.68,0.75c-0.21,2.41-0.4,4.83-0.6,7.24c-0.68,8.01-0.98,16.04-1.05,24.08c0,0.34-0.01,0.67-0.01,1.01
		c0,0.32,0.02,0.58-0.46,0.59c-0.5,0.01-0.53-0.23-0.54-0.62c-0.09-2.45-0.15-4.91-0.29-7.35c-0.43-7.51-1.55-14.92-3.29-22.24
		C264.79,28.37,264.78,28.37,266.27,28.38z"/>
	<path class="st4" d="M269.7,94.45c-0.21,0-0.43-0.02-0.64,0c-0.71,0.08-1.08-0.08-0.99-0.93c0.08-0.73-0.4-1.12-1.13-1.14
		c-0.43-0.01-0.86-0.02-1.29,0.02c-0.69,0.06-0.83-0.16-0.66-0.84c0.7-2.82,1.27-5.67,1.77-8.54c1.23-7.05,1.84-14.16,1.94-21.32
		c0-0.27,0-0.57,0.1-0.8c0.1-0.21,0.39-0.1,0.59-0.1c0.39,0.01,0.29,0.32,0.3,0.54c0.04,2.12,0.06,4.23,0.1,6.35
		c0.17,8.34,0.66,16.67,1.51,24.97C271.5,94.45,271.49,94.45,269.7,94.45z"/>
	<path class="st2" d="M219.94,59.98c-1.78,0-3.56-0.02-5.34,0.02c-0.42,0.01-1.2-0.3-1.18,0.42c0.02,0.67,0.79,0.38,1.22,0.38
		c3.68,0.02,7.36,0.03,11.04,0c0.64-0.01,0.83,0.18,0.82,0.83c-0.17,8.14-1.57,16.05-4.23,23.75c-0.27,0.78-0.62,1.07-1.44,1.01
		c-0.88-0.07-1.78-0.07-2.67,0c-0.89,0.08-1.35-0.37-1.7-1.09c-1.82-3.78-3.23-7.72-4.18-11.81c-1.16-5-1.68-10.08-1.47-15.22
		c0.32-7.92,2.18-15.47,5.59-22.64c0.39-0.82,0.9-1.31,1.9-1.21c0.94,0.09,1.9,0.05,2.85,0.01c0.56-0.03,0.83,0.2,1,0.7
		c1.48,4.29,2.63,8.65,3.35,13.13c0.57,3.54,0.87,7.11,0.99,10.69c0.03,0.85-0.21,1.09-1.06,1.06
		C223.62,59.93,221.78,59.98,219.94,59.98z"/>
</g>
<g>
	<g>
		<rect x="25.49" y="150.46" class="st5" width="10" height="10"/>
		<g>
			<path d="M50.99,151.46v0.71h-3.96v2.4h3.75v0.71h-3.75v3.32h-0.82v-7.13H50.99z"/>
			<path d="M52.79,151.46v6.43h4.13v0.71h-4.94v-7.13H52.79z"/>
			<path d="M60.42,151.46c1.13,0,1.98,0.32,2.56,0.98c0.53,0.6,0.8,1.47,0.8,2.59c0,1.1-0.29,1.97-0.86,2.59
				c-0.6,0.65-1.46,0.98-2.58,0.98h-2.48v-7.13H60.42z M58.68,157.89h1.52c0.93,0,1.63-0.25,2.1-0.74c0.44-0.48,0.67-1.19,0.67-2.12
				c0-0.96-0.21-1.67-0.62-2.13c-0.44-0.49-1.12-0.73-2.06-0.73h-1.61V157.89z"/>
			<path d="M69.85,150.53c-0.09,0.37-0.18,0.72-0.28,1.04h1.73v0.69h-1.96c-0.26,0.69-0.55,1.32-0.88,1.88l-0.59-0.37
				c0.59-1.02,1.02-2.15,1.29-3.39L69.85,150.53z M71.18,153.58v0.65h-1.05v1.23h1.28v0.66h-1.28v2.32
				c0.34-0.16,0.69-0.37,1.04-0.62l0.13,0.62c-0.54,0.36-1.15,0.65-1.85,0.87l-0.28-0.6c0.17-0.06,0.26-0.17,0.26-0.32v-2.27h-1.25
				v-0.66h1.25v-1.23h-0.52v-0.65H71.18z M76.23,154.08v3.14h-1.02v1.3c0,0.25,0.12,0.38,0.37,0.38h0.43c0.16,0,0.28-0.05,0.35-0.14
				c0.09-0.12,0.15-0.47,0.18-1.04l0.59,0.18c-0.06,0.76-0.17,1.22-0.33,1.39c-0.14,0.13-0.37,0.2-0.68,0.2H75.4
				c-0.57,0-0.85-0.28-0.85-0.83v-1.44h-0.88c-0.11,0.6-0.32,1.09-0.63,1.46c-0.36,0.42-0.95,0.74-1.78,0.97l-0.25-0.6
				c0.68-0.18,1.18-0.44,1.49-0.76c0.24-0.28,0.41-0.63,0.5-1.07h-0.9v-3.14H76.23z M73.78,151.19c-0.1-0.26-0.22-0.51-0.34-0.74
				l0.72-0.12c0.1,0.25,0.21,0.54,0.31,0.86h2.12v0.6h-0.82c-0.09,0.38-0.21,0.74-0.37,1.08h1.52v0.61h-5.43v-0.61h1.49
				c-0.12-0.4-0.25-0.76-0.39-1.08h-0.8v-0.6H73.78z M75.58,155.38v-0.73h-2.84v0.73H75.58z M75.58,155.91h-2.84v0.73h2.84V155.91z
				 M75.1,151.79h-1.81c0.12,0.33,0.23,0.69,0.34,1.08h1.08C74.89,152.52,75.02,152.16,75.1,151.79z"/>
			<path d="M80.63,154.38c-0.01,0.37-0.03,0.72-0.05,1.05h4.65v4.19h-0.72v-3.49h-4.02c-0.24,1.5-0.79,2.66-1.64,3.46l-0.55-0.48
				c1.05-0.99,1.58-2.57,1.6-4.73v-3.67h0.73v2.38h2.93v-2.66h0.71v2.66h2.25v0.69h-5.89V154.38z"/>
		</g>
	</g>
	<g>
		<rect x="125.49" y="150.46" class="st6" width="10" height="10"/>
		<g>
			<path d="M150.51,151.87c0.48,0.38,0.75,0.95,0.82,1.7h-0.81c-0.09-0.52-0.29-0.9-0.6-1.15c-0.32-0.26-0.77-0.38-1.35-0.38
				c-0.53,0-0.94,0.08-1.24,0.26c-0.34,0.2-0.51,0.5-0.51,0.91c0,0.36,0.2,0.65,0.61,0.87c0.18,0.1,0.62,0.25,1.31,0.45
				c0.94,0.28,1.56,0.51,1.86,0.69c0.59,0.36,0.89,0.86,0.89,1.51c0,0.62-0.25,1.12-0.75,1.48c-0.5,0.35-1.17,0.53-2.02,0.53
				c-0.84,0-1.5-0.18-1.98-0.54c-0.56-0.43-0.87-1.08-0.93-1.96h0.81c0.07,0.62,0.29,1.08,0.65,1.37c0.33,0.26,0.81,0.4,1.45,0.4
				c0.58,0,1.06-0.11,1.42-0.33c0.36-0.22,0.54-0.52,0.54-0.9c0-0.45-0.24-0.8-0.71-1.05c-0.2-0.12-0.71-0.29-1.51-0.52
				c-0.86-0.26-1.41-0.46-1.64-0.58c-0.55-0.32-0.82-0.78-0.82-1.38c0-0.62,0.26-1.11,0.79-1.45c0.47-0.32,1.08-0.48,1.82-0.48
				C149.41,151.32,150.05,151.5,150.51,151.87z"/>
			<path d="M153.34,151.46v6.43h4.13v0.71h-4.94v-7.13H153.34z"/>
			<path d="M160.97,151.46c1.13,0,1.98,0.32,2.56,0.98c0.53,0.6,0.8,1.47,0.8,2.59c0,1.1-0.29,1.97-0.86,2.59
				c-0.6,0.65-1.46,0.98-2.58,0.98h-2.48v-7.13H160.97z M159.23,157.89h1.52c0.93,0,1.63-0.25,2.1-0.74
				c0.44-0.48,0.67-1.19,0.67-2.12c0-0.96-0.21-1.67-0.62-2.13c-0.44-0.49-1.12-0.73-2.06-0.73h-1.61V157.89z"/>
			<path d="M170.4,150.53c-0.09,0.37-0.18,0.72-0.28,1.04h1.73v0.69h-1.96c-0.26,0.69-0.55,1.32-0.88,1.88l-0.59-0.37
				c0.59-1.02,1.02-2.15,1.29-3.39L170.4,150.53z M171.73,153.58v0.65h-1.05v1.23h1.28v0.66h-1.28v2.32
				c0.34-0.16,0.69-0.37,1.04-0.62l0.13,0.62c-0.54,0.36-1.15,0.65-1.85,0.87l-0.28-0.6c0.17-0.06,0.26-0.17,0.26-0.32v-2.27h-1.25
				v-0.66h1.25v-1.23h-0.52v-0.65H171.73z M176.79,154.08v3.14h-1.02v1.3c0,0.25,0.12,0.38,0.37,0.38h0.43
				c0.16,0,0.28-0.05,0.35-0.14c0.09-0.12,0.15-0.47,0.18-1.04l0.59,0.18c-0.06,0.76-0.17,1.22-0.33,1.39
				c-0.14,0.13-0.37,0.2-0.68,0.2h-0.73c-0.57,0-0.85-0.28-0.85-0.83v-1.44h-0.88c-0.11,0.6-0.32,1.09-0.63,1.46
				c-0.36,0.42-0.95,0.74-1.78,0.97l-0.25-0.6c0.68-0.18,1.18-0.44,1.49-0.76c0.24-0.28,0.41-0.63,0.5-1.07h-0.9v-3.14H176.79z
				 M174.33,151.19c-0.1-0.26-0.22-0.51-0.34-0.74l0.72-0.12c0.1,0.25,0.21,0.54,0.31,0.86h2.12v0.6h-0.82
				c-0.09,0.38-0.21,0.74-0.37,1.08h1.52v0.61h-5.43v-0.61h1.49c-0.12-0.4-0.25-0.76-0.39-1.08h-0.8v-0.6H174.33z M176.14,155.38
				v-0.73h-2.84v0.73H176.14z M176.14,155.91h-2.84v0.73h2.84V155.91z M175.65,151.79h-1.81c0.12,0.33,0.23,0.69,0.34,1.08h1.08
				C175.44,152.52,175.57,152.16,175.65,151.79z"/>
			<path d="M181.18,154.38c-0.01,0.37-0.03,0.72-0.05,1.05h4.65v4.19h-0.72v-3.49h-4.02c-0.24,1.5-0.79,2.66-1.64,3.46l-0.55-0.48
				c1.05-0.99,1.58-2.57,1.6-4.73v-3.67h0.73v2.38h2.93v-2.66h0.71v2.66h2.25v0.69h-5.89V154.38z"/>
		</g>
	</g>
	<g>
		<g>
			<path class="st7" d="M234.49,151.46v8h-8v-8H234.49 M235.49,150.46h-10v10h10V150.46L235.49,150.46z"/>
		</g>
		<g>
			<path d="M249.69,150.45v9.15h-0.74v-2.36h-3.05v-0.69h3.05v-1.59h-2.59v-0.7h2.59v-1.55h-2.82v-0.69h2.82v-1.58H249.69z
				 M252.03,150.45v1.58h2.81v0.69h-2.81v1.55h2.59v0.7h-2.59v1.59H255v0.69h-2.97v2.36h-0.74v-9.15H252.03z"/>
			<path d="M257.25,154.12v-2.34H256v-0.67h3.17v0.67h-1.18v2.34h0.98v0.68h-0.98v2.04c0.41-0.17,0.81-0.35,1.19-0.55v0.7
				c-0.97,0.5-2.02,0.91-3.14,1.25l-0.19-0.72c0.48-0.11,0.94-0.24,1.4-0.4v-2.32h-1.13v-0.68H257.25z M261.59,152.16v-1.71h0.7
				v1.71h1.7c-0.32-0.38-0.72-0.77-1.22-1.18l0.42-0.4c0.5,0.39,0.93,0.78,1.27,1.17l-0.4,0.41h0.6v0.7h-2.37v0.96
				c0.15,0.48,0.33,0.94,0.53,1.38c0.46-0.49,0.87-1.04,1.24-1.65l0.54,0.4c-0.48,0.74-0.97,1.36-1.46,1.86
				c0.5,0.92,1.14,1.73,1.92,2.42l-0.47,0.56c-0.98-0.94-1.75-2.08-2.3-3.41v3.3c0,0.55-0.29,0.83-0.85,0.83h-1.1l-0.14-0.68
				c0.34,0.03,0.68,0.05,1,0.05c0.26,0,0.39-0.13,0.39-0.37v-2.5c-0.66,0.97-1.43,1.78-2.3,2.44l-0.37-0.62
				c1.01-0.68,1.9-1.62,2.67-2.8v-2.17h-2.27v-0.7H261.59z M260.96,155.35l-0.5,0.35c-0.28-0.51-0.65-1.08-1.12-1.7l0.56-0.35
				C260.36,154.3,260.71,154.87,260.96,155.35z"/>
			<path d="M274.93,150.83v0.7h-4.01c-0.08,0.44-0.21,0.87-0.37,1.28h3.84v6.82h-0.69v-0.5h-6.41v0.5h-0.69v-6.82h3.22
				c0.16-0.42,0.29-0.84,0.37-1.28h-4.16v-0.7H274.93z M268.68,158.47v-5.01h-1.38v5.01H268.68z M271.63,154.7v-1.24h-2.28v1.24
				H271.63z M271.63,156.56v-1.22h-2.28v1.22H271.63z M271.63,158.47v-1.28h-2.28v1.28H271.63z M273.71,158.47v-5.01h-1.41v5.01
				H273.71z"/>
			<path d="M277.81,150.53c-0.09,0.37-0.18,0.72-0.28,1.04h1.73v0.69h-1.96c-0.26,0.69-0.55,1.32-0.88,1.88l-0.59-0.37
				c0.59-1.02,1.02-2.15,1.29-3.39L277.81,150.53z M279.14,153.58v0.65h-1.05v1.23h1.28v0.66h-1.28v2.32
				c0.34-0.16,0.69-0.37,1.04-0.62l0.13,0.62c-0.54,0.36-1.15,0.65-1.85,0.87l-0.28-0.6c0.17-0.06,0.26-0.17,0.26-0.32v-2.27h-1.25
				v-0.66h1.25v-1.23h-0.52v-0.65H279.14z M284.2,154.08v3.14h-1.02v1.3c0,0.25,0.12,0.38,0.37,0.38h0.43
				c0.16,0,0.28-0.05,0.35-0.14c0.09-0.12,0.15-0.47,0.18-1.04l0.59,0.18c-0.06,0.76-0.17,1.22-0.33,1.39
				c-0.14,0.13-0.37,0.2-0.68,0.2h-0.73c-0.57,0-0.85-0.28-0.85-0.83v-1.44h-0.88c-0.11,0.6-0.32,1.09-0.63,1.46
				c-0.36,0.42-0.95,0.74-1.78,0.97l-0.25-0.6c0.68-0.18,1.18-0.44,1.49-0.76c0.24-0.28,0.41-0.63,0.5-1.07h-0.9v-3.14H284.2z
				 M281.74,151.19c-0.1-0.26-0.22-0.51-0.34-0.74l0.72-0.12c0.1,0.25,0.21,0.54,0.31,0.86h2.12v0.6h-0.82
				c-0.09,0.38-0.21,0.74-0.37,1.08h1.52v0.61h-5.43v-0.61h1.49c-0.12-0.4-0.25-0.76-0.39-1.08h-0.8v-0.6H281.74z M283.55,155.38
				v-0.73h-2.84v0.73H283.55z M283.55,155.91h-2.84v0.73h2.84V155.91z M283.06,151.79h-1.81c0.12,0.33,0.23,0.69,0.34,1.08h1.08
				C282.85,152.52,282.98,152.16,283.06,151.79z"/>
			<path d="M288.59,154.38c-0.01,0.37-0.03,0.72-0.05,1.05h4.65v4.19h-0.72v-3.49h-4.02c-0.24,1.5-0.79,2.66-1.64,3.46l-0.55-0.48
				c1.05-0.99,1.58-2.57,1.6-4.73v-3.67h0.73v2.38h2.93v-2.66h0.71v2.66h2.25v0.69h-5.89V154.38z"/>
		</g>
	</g>
</g>
</svg>
